<svg width="18" height="21" viewBox="0 0 18 21" fill="none" xmlns="http://www.w3.org/2000/svg">
<path d="M3.26385 6.5H14.6028C14.8912 6.49997 15.1762 6.56229 15.4382 6.6827C15.7002 6.80311 15.9331 6.97876 16.1209 7.1976C16.3087 7.41645 16.4469 7.67331 16.5261 7.95059C16.6054 8.22786 16.6237 8.51898 16.5798 8.804L15.3249 16.956C15.2159 17.6644 14.8569 18.3105 14.3128 18.7771C13.7688 19.2438 13.0756 19.5002 12.3588 19.5H5.50685C4.79025 19.5 4.09733 19.2434 3.55348 18.7768C3.00963 18.3102 2.65077 17.6643 2.54185 16.956L1.28685 8.804C1.24302 8.51898 1.26134 8.22786 1.34056 7.95059C1.41977 7.67331 1.55801 7.41645 1.7458 7.1976C1.93358 6.97876 2.16647 6.80311 2.42849 6.6827C2.69052 6.56229 2.97548 6.49997 3.26385 6.5Z" stroke="#121212" stroke-width="1.5" stroke-linecap="round" stroke-linejoin="round"/>
<path d="M3.26385 6.5H14.6028C14.8912 6.49997 15.1762 6.56229 15.4382 6.6827C15.7002 6.80311 15.9331 6.97876 16.1209 7.1976C16.3087 7.41645 16.4469 7.67331 16.5261 7.95059C16.6054 8.22786 16.6237 8.51898 16.5798 8.804L15.3249 16.956C15.2159 17.6644 14.8569 18.3105 14.3128 18.7771C13.7688 19.2438 13.0756 19.5002 12.3588 19.5H5.50685C4.79025 19.5 4.09733 19.2434 3.55348 18.7768C3.00963 18.3102 2.65077 17.6643 2.54185 16.956L1.28685 8.804C1.24302 8.51898 1.26134 8.22786 1.34056 7.95059C1.41977 7.67331 1.55801 7.41645 1.7458 7.1976C1.93358 6.97876 2.16647 6.80311 2.42849 6.6827C2.69052 6.56229 2.97548 6.49997 3.26385 6.5Z" stroke="black" stroke-opacity="0.2" stroke-width="1.5" stroke-linecap="round" stroke-linejoin="round"/>
<path d="M3.26385 6.5H14.6028C14.8912 6.49997 15.1762 6.56229 15.4382 6.6827C15.7002 6.80311 15.9331 6.97876 16.1209 7.1976C16.3087 7.41645 16.4469 7.67331 16.5261 7.95059C16.6054 8.22786 16.6237 8.51898 16.5798 8.804L15.3249 16.956C15.2159 17.6644 14.8569 18.3105 14.3128 18.7771C13.7688 19.2438 13.0756 19.5002 12.3588 19.5H5.50685C4.79025 19.5 4.09733 19.2434 3.55348 18.7768C3.00963 18.3102 2.65077 17.6643 2.54185 16.956L1.28685 8.804C1.24302 8.51898 1.26134 8.22786 1.34056 7.95059C1.41977 7.67331 1.55801 7.41645 1.7458 7.1976C1.93358 6.97876 2.16647 6.80311 2.42849 6.6827C2.69052 6.56229 2.97548 6.49997 3.26385 6.5Z" stroke="black" stroke-opacity="0.2" stroke-width="1.5" stroke-linecap="round" stroke-linejoin="round"/>
<path d="M3.26385 6.5H14.6028C14.8912 6.49997 15.1762 6.56229 15.4382 6.6827C15.7002 6.80311 15.9331 6.97876 16.1209 7.1976C16.3087 7.41645 16.4469 7.67331 16.5261 7.95059C16.6054 8.22786 16.6237 8.51898 16.5798 8.804L15.3249 16.956C15.2159 17.6644 14.8569 18.3105 14.3128 18.7771C13.7688 19.2438 13.0756 19.5002 12.3588 19.5H5.50685C4.79025 19.5 4.09733 19.2434 3.55348 18.7768C3.00963 18.3102 2.65077 17.6643 2.54185 16.956L1.28685 8.804C1.24302 8.51898 1.26134 8.22786 1.34056 7.95059C1.41977 7.67331 1.55801 7.41645 1.7458 7.1976C1.93358 6.97876 2.16647 6.80311 2.42849 6.6827C2.69052 6.56229 2.97548 6.49997 3.26385 6.5Z" stroke="black" stroke-opacity="0.2" stroke-width="1.5" stroke-linecap="round" stroke-linejoin="round"/>
<path d="M3.26385 6.5H14.6028C14.8912 6.49997 15.1762 6.56229 15.4382 6.6827C15.7002 6.80311 15.9331 6.97876 16.1209 7.1976C16.3087 7.41645 16.4469 7.67331 16.5261 7.95059C16.6054 8.22786 16.6237 8.51898 16.5798 8.804L15.3249 16.956C15.2159 17.6644 14.8569 18.3105 14.3128 18.7771C13.7688 19.2438 13.0756 19.5002 12.3588 19.5H5.50685C4.79025 19.5 4.09733 19.2434 3.55348 18.7768C3.00963 18.3102 2.65077 17.6643 2.54185 16.956L1.28685 8.804C1.24302 8.51898 1.26134 8.22786 1.34056 7.95059C1.41977 7.67331 1.55801 7.41645 1.7458 7.1976C1.93358 6.97876 2.16647 6.80311 2.42849 6.6827C2.69052 6.56229 2.97548 6.49997 3.26385 6.5Z" stroke="black" stroke-opacity="0.2" stroke-width="1.5" stroke-linecap="round" stroke-linejoin="round"/>
<path d="M5.93286 9.5V4.5C5.93286 3.70435 6.24893 2.94129 6.81154 2.37868C7.37415 1.81607 8.13721 1.5 8.93286 1.5C9.72851 1.5 10.4916 1.81607 11.0542 2.37868C11.6168 2.94129 11.9329 3.70435 11.9329 4.5V9.5" stroke="#121212" stroke-width="1.5" stroke-linecap="round" stroke-linejoin="round"/>
<path d="M5.93286 9.5V4.5C5.93286 3.70435 6.24893 2.94129 6.81154 2.37868C7.37415 1.81607 8.13721 1.5 8.93286 1.5C9.72851 1.5 10.4916 1.81607 11.0542 2.37868C11.6168 2.94129 11.9329 3.70435 11.9329 4.5V9.5" stroke="black" stroke-opacity="0.2" stroke-width="1.5" stroke-linecap="round" stroke-linejoin="round"/>
<path d="M5.93286 9.5V4.5C5.93286 3.70435 6.24893 2.94129 6.81154 2.37868C7.37415 1.81607 8.13721 1.5 8.93286 1.5C9.72851 1.5 10.4916 1.81607 11.0542 2.37868C11.6168 2.94129 11.9329 3.70435 11.9329 4.5V9.5" stroke="black" stroke-opacity="0.2" stroke-width="1.5" stroke-linecap="round" stroke-linejoin="round"/>
<path d="M5.93286 9.5V4.5C5.93286 3.70435 6.24893 2.94129 6.81154 2.37868C7.37415 1.81607 8.13721 1.5 8.93286 1.5C9.72851 1.5 10.4916 1.81607 11.0542 2.37868C11.6168 2.94129 11.9329 3.70435 11.9329 4.5V9.5" stroke="black" stroke-opacity="0.2" stroke-width="1.5" stroke-linecap="round" stroke-linejoin="round"/>
<path d="M5.93286 9.5V4.5C5.93286 3.70435 6.24893 2.94129 6.81154 2.37868C7.37415 1.81607 8.13721 1.5 8.93286 1.5C9.72851 1.5 10.4916 1.81607 11.0542 2.37868C11.6168 2.94129 11.9329 3.70435 11.9329 4.5V9.5" stroke="black" stroke-opacity="0.2" stroke-width="1.5" stroke-linecap="round" stroke-linejoin="round"/>
</svg>
