<svg width="18" height="21" viewBox="0 0 18 21" fill="none" xmlns="http://www.w3.org/2000/svg">
<path d="M2.96348 17.1504V8.60039C2.96348 7.08866 3.56401 5.63884 4.63297 4.56988C5.70193 3.50092 7.15174 2.90039 8.66348 2.90039C10.1752 2.90039 11.625 3.50092 12.694 4.56988C13.7629 5.63884 14.3635 7.08866 14.3635 8.60039V17.1504M2.96348 17.1504H14.3635M2.96348 17.1504H1.06348M14.3635 17.1504H16.2635M7.71348 20.0004H9.61348" stroke="#121212" stroke-width="1.5" stroke-linecap="round" stroke-linejoin="round"/>
<path d="M2.96348 17.1504V8.60039C2.96348 7.08866 3.56401 5.63884 4.63297 4.56988C5.70193 3.50092 7.15174 2.90039 8.66348 2.90039C10.1752 2.90039 11.625 3.50092 12.694 4.56988C13.7629 5.63884 14.3635 7.08866 14.3635 8.60039V17.1504M2.96348 17.1504H14.3635M2.96348 17.1504H1.06348M14.3635 17.1504H16.2635M7.71348 20.0004H9.61348" stroke="black" stroke-opacity="0.2" stroke-width="1.5" stroke-linecap="round" stroke-linejoin="round"/>
<path d="M2.96348 17.1504V8.60039C2.96348 7.08866 3.56401 5.63884 4.63297 4.56988C5.70193 3.50092 7.15174 2.90039 8.66348 2.90039C10.1752 2.90039 11.625 3.50092 12.694 4.56988C13.7629 5.63884 14.3635 7.08866 14.3635 8.60039V17.1504M2.96348 17.1504H14.3635M2.96348 17.1504H1.06348M14.3635 17.1504H16.2635M7.71348 20.0004H9.61348" stroke="black" stroke-opacity="0.2" stroke-width="1.5" stroke-linecap="round" stroke-linejoin="round"/>
<path d="M2.96348 17.1504V8.60039C2.96348 7.08866 3.56401 5.63884 4.63297 4.56988C5.70193 3.50092 7.15174 2.90039 8.66348 2.90039C10.1752 2.90039 11.625 3.50092 12.694 4.56988C13.7629 5.63884 14.3635 7.08866 14.3635 8.60039V17.1504M2.96348 17.1504H14.3635M2.96348 17.1504H1.06348M14.3635 17.1504H16.2635M7.71348 20.0004H9.61348" stroke="black" stroke-opacity="0.2" stroke-width="1.5" stroke-linecap="round" stroke-linejoin="round"/>
<path d="M2.96348 17.1504V8.60039C2.96348 7.08866 3.56401 5.63884 4.63297 4.56988C5.70193 3.50092 7.15174 2.90039 8.66348 2.90039C10.1752 2.90039 11.625 3.50092 12.694 4.56988C13.7629 5.63884 14.3635 7.08866 14.3635 8.60039V17.1504M2.96348 17.1504H14.3635M2.96348 17.1504H1.06348M14.3635 17.1504H16.2635M7.71348 20.0004H9.61348" stroke="black" stroke-opacity="0.2" stroke-width="1.5" stroke-linecap="round" stroke-linejoin="round"/>
<path d="M8.6635 2.9C9.18817 2.9 9.6135 2.47467 9.6135 1.95C9.6135 1.42533 9.18817 1 8.6635 1C8.13883 1 7.7135 1.42533 7.7135 1.95C7.7135 2.47467 8.13883 2.9 8.6635 2.9Z" fill="#121212"/>
<path d="M8.6635 2.9C9.18817 2.9 9.6135 2.47467 9.6135 1.95C9.6135 1.42533 9.18817 1 8.6635 1C8.13883 1 7.7135 1.42533 7.7135 1.95C7.7135 2.47467 8.13883 2.9 8.6635 2.9Z" fill="black" fill-opacity="0.2"/>
<path d="M8.6635 2.9C9.18817 2.9 9.6135 2.47467 9.6135 1.95C9.6135 1.42533 9.18817 1 8.6635 1C8.13883 1 7.7135 1.42533 7.7135 1.95C7.7135 2.47467 8.13883 2.9 8.6635 2.9Z" fill="black" fill-opacity="0.2"/>
<path d="M8.6635 2.9C9.18817 2.9 9.6135 2.47467 9.6135 1.95C9.6135 1.42533 9.18817 1 8.6635 1C8.13883 1 7.7135 1.42533 7.7135 1.95C7.7135 2.47467 8.13883 2.9 8.6635 2.9Z" fill="black" fill-opacity="0.2"/>
<path d="M8.6635 2.9C9.18817 2.9 9.6135 2.47467 9.6135 1.95C9.6135 1.42533 9.18817 1 8.6635 1C8.13883 1 7.7135 1.42533 7.7135 1.95C7.7135 2.47467 8.13883 2.9 8.6635 2.9Z" fill="black" fill-opacity="0.2"/>
<path d="M8.6635 2.9C9.18817 2.9 9.6135 2.47467 9.6135 1.95C9.6135 1.42533 9.18817 1 8.6635 1C8.13883 1 7.7135 1.42533 7.7135 1.95C7.7135 2.47467 8.13883 2.9 8.6635 2.9Z" stroke="#121212" stroke-width="1.5"/>
<path d="M8.6635 2.9C9.18817 2.9 9.6135 2.47467 9.6135 1.95C9.6135 1.42533 9.18817 1 8.6635 1C8.13883 1 7.7135 1.42533 7.7135 1.95C7.7135 2.47467 8.13883 2.9 8.6635 2.9Z" stroke="black" stroke-opacity="0.2" stroke-width="1.5"/>
<path d="M8.6635 2.9C9.18817 2.9 9.6135 2.47467 9.6135 1.95C9.6135 1.42533 9.18817 1 8.6635 1C8.13883 1 7.7135 1.42533 7.7135 1.95C7.7135 2.47467 8.13883 2.9 8.6635 2.9Z" stroke="black" stroke-opacity="0.2" stroke-width="1.5"/>
<path d="M8.6635 2.9C9.18817 2.9 9.6135 2.47467 9.6135 1.95C9.6135 1.42533 9.18817 1 8.6635 1C8.13883 1 7.7135 1.42533 7.7135 1.95C7.7135 2.47467 8.13883 2.9 8.6635 2.9Z" stroke="black" stroke-opacity="0.2" stroke-width="1.5"/>
<path d="M8.6635 2.9C9.18817 2.9 9.6135 2.47467 9.6135 1.95C9.6135 1.42533 9.18817 1 8.6635 1C8.13883 1 7.7135 1.42533 7.7135 1.95C7.7135 2.47467 8.13883 2.9 8.6635 2.9Z" stroke="black" stroke-opacity="0.2" stroke-width="1.5"/>
</svg>
