<svg width="36" height="36" viewBox="0 0 36 36" fill="none" xmlns="http://www.w3.org/2000/svg">
<circle cx="18" cy="18" r="10.5" fill="#111111"/>
<g filter="url(#filter0_b_6683_10997)">
<path d="M11.5875 24.4125C12.0224 24.8474 12.7276 24.8474 13.1625 24.4125L18 19.575L22.8375 24.4125C23.2724 24.8474 23.9776 24.8474 24.4125 24.4125C24.8474 23.9776 24.8474 23.2724 24.4125 22.8375L19.575 18L24.4125 13.1625C24.8474 12.7276 24.8474 12.0224 24.4125 11.5875C23.9776 11.1526 23.2724 11.1526 22.8375 11.5875L18 16.425L13.1625 11.5875C12.7276 11.1526 12.0224 11.1526 11.5875 11.5875C11.1526 12.0224 11.1526 12.7276 11.5875 13.1625L16.425 18L11.5875 22.8375C11.1526 23.2724 11.1526 23.9776 11.5875 24.4125ZM18 33C15.95 33 14.0125 32.6062 12.1875 31.8187C10.3625 31.0312 8.76875 29.9563 7.40625 28.5938C6.04375 27.2313 4.96875 25.6375 4.18125 23.8125C3.39375 21.9875 3 20.05 3 18C3 15.925 3.39375 13.975 4.18125 12.15C4.96875 10.325 6.04375 8.7375 7.40625 7.3875C8.76875 6.0375 10.3625 4.96875 12.1875 4.18125C14.0125 3.39375 15.95 3 18 3C20.075 3 22.025 3.39375 23.85 4.18125C25.675 4.96875 27.2625 6.0375 28.6125 7.3875C29.9625 8.7375 31.0312 10.325 31.8187 12.15C32.6062 13.975 33 15.925 33 18C33 20.05 32.6062 21.9875 31.8187 23.8125C31.0312 25.6375 29.9625 27.2313 28.6125 28.5938C27.2625 29.9563 25.675 31.0312 23.85 31.8187C22.025 32.6062 20.075 33 18 33Z" fill="white"/>
</g>
<defs>
<filter id="filter0_b_6683_10997" x="-93" y="-93" width="222" height="222" filterUnits="userSpaceOnUse" color-interpolation-filters="sRGB">
<feFlood flood-opacity="0" result="BackgroundImageFix"/>
<feGaussianBlur in="BackgroundImageFix" stdDeviation="48"/>
<feComposite in2="SourceAlpha" operator="in" result="effect1_backgroundBlur_6683_10997"/>
<feBlend mode="normal" in="SourceGraphic" in2="effect1_backgroundBlur_6683_10997" result="shape"/>
</filter>
</defs>
</svg>
