<svg width="138" height="36" viewBox="0 0 138 36" fill="none" xmlns="http://www.w3.org/2000/svg">
<path d="M19.5032 27.9547C19.3041 27.7557 19.0649 27.6587 18.8306 27.6587C18.5429 27.6587 18.2768 27.7958 18.0677 28.0049H18.066C17.4001 28.6973 16.679 29.2625 15.8325 29.6572C14.9859 30.0519 14.0088 30.2761 12.8209 30.2761C10.589 30.2761 8.72684 29.4716 7.41848 28.1403C6.11013 26.8074 5.35222 24.9443 5.35222 22.8102C5.35222 20.6761 6.11013 18.8364 7.40677 17.5286C8.70342 16.2207 10.5421 15.4413 12.7255 15.4397C13.9368 15.4397 14.9256 15.6638 15.7856 16.0585C16.6456 16.4532 17.3784 17.0185 18.0694 17.7092C18.2534 17.9199 18.5111 18.0554 18.7888 18.0554C19.0197 18.0554 19.2573 17.9584 19.4564 17.7594L21.6314 15.6822C21.7987 15.5149 21.8974 15.3126 21.8957 15.0951C21.8957 14.8777 21.8037 14.6653 21.6464 14.4546L21.6448 14.4496C19.5852 11.9008 16.3946 10.2835 12.4846 10.2852C8.91757 10.2852 5.79391 11.6298 3.56536 13.8709C1.33345 16.1087 0 19.2428 0 22.8085C0 26.3993 1.34516 29.5569 3.59213 31.8147C5.83909 34.0725 8.98617 35.4306 12.5783 35.4306C16.4398 35.4306 19.632 33.815 21.6899 31.2662V31.2628L21.6933 31.2611C21.8506 31.0504 21.9426 30.8363 21.9426 30.6206C21.9426 30.4032 21.8455 30.2008 21.6782 30.0352L19.5015 27.9564L19.5032 27.9547Z" fill="#121212"/>
<path d="M19.5032 27.9547C19.3041 27.7557 19.0649 27.6587 18.8306 27.6587C18.5429 27.6587 18.2768 27.7958 18.0677 28.0049H18.066C17.4001 28.6973 16.679 29.2625 15.8325 29.6572C14.9859 30.0519 14.0088 30.2761 12.8209 30.2761C10.589 30.2761 8.72684 29.4716 7.41848 28.1403C6.11013 26.8074 5.35222 24.9443 5.35222 22.8102C5.35222 20.6761 6.11013 18.8364 7.40677 17.5286C8.70342 16.2207 10.5421 15.4413 12.7255 15.4397C13.9368 15.4397 14.9256 15.6638 15.7856 16.0585C16.6456 16.4532 17.3784 17.0185 18.0694 17.7092C18.2534 17.9199 18.5111 18.0554 18.7888 18.0554C19.0197 18.0554 19.2573 17.9584 19.4564 17.7594L21.6314 15.6822C21.7987 15.5149 21.8974 15.3126 21.8957 15.0951C21.8957 14.8777 21.8037 14.6653 21.6464 14.4546L21.6448 14.4496C19.5852 11.9008 16.3946 10.2835 12.4846 10.2852C8.91757 10.2852 5.79391 11.6298 3.56536 13.8709C1.33345 16.1087 0 19.2428 0 22.8085C0 26.3993 1.34516 29.5569 3.59213 31.8147C5.83909 34.0725 8.98617 35.4306 12.5783 35.4306C16.4398 35.4306 19.632 33.815 21.6899 31.2662V31.2628L21.6933 31.2611C21.8506 31.0504 21.9426 30.8363 21.9426 30.6206C21.9426 30.4032 21.8455 30.2008 21.6782 30.0352L19.5015 27.9564L19.5032 27.9547Z" fill="black" fill-opacity="0.2"/>
<path d="M19.5032 27.9547C19.3041 27.7557 19.0649 27.6587 18.8306 27.6587C18.5429 27.6587 18.2768 27.7958 18.0677 28.0049H18.066C17.4001 28.6973 16.679 29.2625 15.8325 29.6572C14.9859 30.0519 14.0088 30.2761 12.8209 30.2761C10.589 30.2761 8.72684 29.4716 7.41848 28.1403C6.11013 26.8074 5.35222 24.9443 5.35222 22.8102C5.35222 20.6761 6.11013 18.8364 7.40677 17.5286C8.70342 16.2207 10.5421 15.4413 12.7255 15.4397C13.9368 15.4397 14.9256 15.6638 15.7856 16.0585C16.6456 16.4532 17.3784 17.0185 18.0694 17.7092C18.2534 17.9199 18.5111 18.0554 18.7888 18.0554C19.0197 18.0554 19.2573 17.9584 19.4564 17.7594L21.6314 15.6822C21.7987 15.5149 21.8974 15.3126 21.8957 15.0951C21.8957 14.8777 21.8037 14.6653 21.6464 14.4546L21.6448 14.4496C19.5852 11.9008 16.3946 10.2835 12.4846 10.2852C8.91757 10.2852 5.79391 11.6298 3.56536 13.8709C1.33345 16.1087 0 19.2428 0 22.8085C0 26.3993 1.34516 29.5569 3.59213 31.8147C5.83909 34.0725 8.98617 35.4306 12.5783 35.4306C16.4398 35.4306 19.632 33.815 21.6899 31.2662V31.2628L21.6933 31.2611C21.8506 31.0504 21.9426 30.8363 21.9426 30.6206C21.9426 30.4032 21.8455 30.2008 21.6782 30.0352L19.5015 27.9564L19.5032 27.9547Z" fill="black" fill-opacity="0.2"/>
<path d="M19.5032 27.9547C19.3041 27.7557 19.0649 27.6587 18.8306 27.6587C18.5429 27.6587 18.2768 27.7958 18.0677 28.0049H18.066C17.4001 28.6973 16.679 29.2625 15.8325 29.6572C14.9859 30.0519 14.0088 30.2761 12.8209 30.2761C10.589 30.2761 8.72684 29.4716 7.41848 28.1403C6.11013 26.8074 5.35222 24.9443 5.35222 22.8102C5.35222 20.6761 6.11013 18.8364 7.40677 17.5286C8.70342 16.2207 10.5421 15.4413 12.7255 15.4397C13.9368 15.4397 14.9256 15.6638 15.7856 16.0585C16.6456 16.4532 17.3784 17.0185 18.0694 17.7092C18.2534 17.9199 18.5111 18.0554 18.7888 18.0554C19.0197 18.0554 19.2573 17.9584 19.4564 17.7594L21.6314 15.6822C21.7987 15.5149 21.8974 15.3126 21.8957 15.0951C21.8957 14.8777 21.8037 14.6653 21.6464 14.4546L21.6448 14.4496C19.5852 11.9008 16.3946 10.2835 12.4846 10.2852C8.91757 10.2852 5.79391 11.6298 3.56536 13.8709C1.33345 16.1087 0 19.2428 0 22.8085C0 26.3993 1.34516 29.5569 3.59213 31.8147C5.83909 34.0725 8.98617 35.4306 12.5783 35.4306C16.4398 35.4306 19.632 33.815 21.6899 31.2662V31.2628L21.6933 31.2611C21.8506 31.0504 21.9426 30.8363 21.9426 30.6206C21.9426 30.4032 21.8455 30.2008 21.6782 30.0352L19.5015 27.9564L19.5032 27.9547Z" fill="black" fill-opacity="0.2"/>
<path d="M19.5032 27.9547C19.3041 27.7557 19.0649 27.6587 18.8306 27.6587C18.5429 27.6587 18.2768 27.7958 18.0677 28.0049H18.066C17.4001 28.6973 16.679 29.2625 15.8325 29.6572C14.9859 30.0519 14.0088 30.2761 12.8209 30.2761C10.589 30.2761 8.72684 29.4716 7.41848 28.1403C6.11013 26.8074 5.35222 24.9443 5.35222 22.8102C5.35222 20.6761 6.11013 18.8364 7.40677 17.5286C8.70342 16.2207 10.5421 15.4413 12.7255 15.4397C13.9368 15.4397 14.9256 15.6638 15.7856 16.0585C16.6456 16.4532 17.3784 17.0185 18.0694 17.7092C18.2534 17.9199 18.5111 18.0554 18.7888 18.0554C19.0197 18.0554 19.2573 17.9584 19.4564 17.7594L21.6314 15.6822C21.7987 15.5149 21.8974 15.3126 21.8957 15.0951C21.8957 14.8777 21.8037 14.6653 21.6464 14.4546L21.6448 14.4496C19.5852 11.9008 16.3946 10.2835 12.4846 10.2852C8.91757 10.2852 5.79391 11.6298 3.56536 13.8709C1.33345 16.1087 0 19.2428 0 22.8085C0 26.3993 1.34516 29.5569 3.59213 31.8147C5.83909 34.0725 8.98617 35.4306 12.5783 35.4306C16.4398 35.4306 19.632 33.815 21.6899 31.2662V31.2628L21.6933 31.2611C21.8506 31.0504 21.9426 30.8363 21.9426 30.6206C21.9426 30.4032 21.8455 30.2008 21.6782 30.0352L19.5015 27.9564L19.5032 27.9547Z" fill="black" fill-opacity="0.2"/>
<path d="M45.3322 10.863H41.5159C41.2633 10.863 41.0408 10.9516 40.8935 11.1155C40.7446 11.2794 40.676 11.5036 40.676 11.7494V24.5939C40.676 26.4185 40.0971 27.8318 39.1301 28.7934C38.1614 29.7551 36.7945 30.2719 35.1866 30.2736C34.3701 30.2736 33.6524 30.1431 33.0333 29.8956C32.1065 29.5226 31.4004 28.8871 30.9169 27.999C30.435 27.1109 30.1807 25.9686 30.1807 24.5939V11.7494C30.1807 11.5036 30.1121 11.2794 29.9632 11.1155C29.816 10.9516 29.5935 10.8613 29.3408 10.863H25.476C25.2234 10.863 25.0008 10.9516 24.8536 11.1155C24.7047 11.2794 24.6361 11.5036 24.6361 11.7494V25.5606C24.6361 28.7048 25.5279 31.175 27.0705 32.8592C28.613 34.5433 30.8014 35.4297 33.3496 35.4297C35.2368 35.4297 36.8028 34.9631 38.066 34.1871C39.1686 33.5098 40.0402 32.5983 40.7011 31.5613L40.8199 33.9245V33.9279C40.8333 34.0817 40.855 34.2139 40.8935 34.3293C40.9487 34.5032 41.0491 34.647 41.1947 34.734C41.3402 34.821 41.5109 34.8494 41.7083 34.8494H45.3322C45.5849 34.8494 45.8124 34.7624 45.973 34.6019C46.1336 34.4413 46.2206 34.2139 46.2206 33.9613V11.7494C46.2206 11.4969 46.1336 11.2694 45.973 11.1089C45.8124 10.9483 45.5849 10.8613 45.3322 10.8613V10.863Z" fill="#121212"/>
<path d="M45.3322 10.863H41.5159C41.2633 10.863 41.0408 10.9516 40.8935 11.1155C40.7446 11.2794 40.676 11.5036 40.676 11.7494V24.5939C40.676 26.4185 40.0971 27.8318 39.1301 28.7934C38.1614 29.7551 36.7945 30.2719 35.1866 30.2736C34.3701 30.2736 33.6524 30.1431 33.0333 29.8956C32.1065 29.5226 31.4004 28.8871 30.9169 27.999C30.435 27.1109 30.1807 25.9686 30.1807 24.5939V11.7494C30.1807 11.5036 30.1121 11.2794 29.9632 11.1155C29.816 10.9516 29.5935 10.8613 29.3408 10.863H25.476C25.2234 10.863 25.0008 10.9516 24.8536 11.1155C24.7047 11.2794 24.6361 11.5036 24.6361 11.7494V25.5606C24.6361 28.7048 25.5279 31.175 27.0705 32.8592C28.613 34.5433 30.8014 35.4297 33.3496 35.4297C35.2368 35.4297 36.8028 34.9631 38.066 34.1871C39.1686 33.5098 40.0402 32.5983 40.7011 31.5613L40.8199 33.9245V33.9279C40.8333 34.0817 40.855 34.2139 40.8935 34.3293C40.9487 34.5032 41.0491 34.647 41.1947 34.734C41.3402 34.821 41.5109 34.8494 41.7083 34.8494H45.3322C45.5849 34.8494 45.8124 34.7624 45.973 34.6019C46.1336 34.4413 46.2206 34.2139 46.2206 33.9613V11.7494C46.2206 11.4969 46.1336 11.2694 45.973 11.1089C45.8124 10.9483 45.5849 10.8613 45.3322 10.8613V10.863Z" fill="black" fill-opacity="0.2"/>
<path d="M45.3322 10.863H41.5159C41.2633 10.863 41.0408 10.9516 40.8935 11.1155C40.7446 11.2794 40.676 11.5036 40.676 11.7494V24.5939C40.676 26.4185 40.0971 27.8318 39.1301 28.7934C38.1614 29.7551 36.7945 30.2719 35.1866 30.2736C34.3701 30.2736 33.6524 30.1431 33.0333 29.8956C32.1065 29.5226 31.4004 28.8871 30.9169 27.999C30.435 27.1109 30.1807 25.9686 30.1807 24.5939V11.7494C30.1807 11.5036 30.1121 11.2794 29.9632 11.1155C29.816 10.9516 29.5935 10.8613 29.3408 10.863H25.476C25.2234 10.863 25.0008 10.9516 24.8536 11.1155C24.7047 11.2794 24.6361 11.5036 24.6361 11.7494V25.5606C24.6361 28.7048 25.5279 31.175 27.0705 32.8592C28.613 34.5433 30.8014 35.4297 33.3496 35.4297C35.2368 35.4297 36.8028 34.9631 38.066 34.1871C39.1686 33.5098 40.0402 32.5983 40.7011 31.5613L40.8199 33.9245V33.9279C40.8333 34.0817 40.855 34.2139 40.8935 34.3293C40.9487 34.5032 41.0491 34.647 41.1947 34.734C41.3402 34.821 41.5109 34.8494 41.7083 34.8494H45.3322C45.5849 34.8494 45.8124 34.7624 45.973 34.6019C46.1336 34.4413 46.2206 34.2139 46.2206 33.9613V11.7494C46.2206 11.4969 46.1336 11.2694 45.973 11.1089C45.8124 10.9483 45.5849 10.8613 45.3322 10.8613V10.863Z" fill="black" fill-opacity="0.2"/>
<path d="M45.3322 10.863H41.5159C41.2633 10.863 41.0408 10.9516 40.8935 11.1155C40.7446 11.2794 40.676 11.5036 40.676 11.7494V24.5939C40.676 26.4185 40.0971 27.8318 39.1301 28.7934C38.1614 29.7551 36.7945 30.2719 35.1866 30.2736C34.3701 30.2736 33.6524 30.1431 33.0333 29.8956C32.1065 29.5226 31.4004 28.8871 30.9169 27.999C30.435 27.1109 30.1807 25.9686 30.1807 24.5939V11.7494C30.1807 11.5036 30.1121 11.2794 29.9632 11.1155C29.816 10.9516 29.5935 10.8613 29.3408 10.863H25.476C25.2234 10.863 25.0008 10.9516 24.8536 11.1155C24.7047 11.2794 24.6361 11.5036 24.6361 11.7494V25.5606C24.6361 28.7048 25.5279 31.175 27.0705 32.8592C28.613 34.5433 30.8014 35.4297 33.3496 35.4297C35.2368 35.4297 36.8028 34.9631 38.066 34.1871C39.1686 33.5098 40.0402 32.5983 40.7011 31.5613L40.8199 33.9245V33.9279C40.8333 34.0817 40.855 34.2139 40.8935 34.3293C40.9487 34.5032 41.0491 34.647 41.1947 34.734C41.3402 34.821 41.5109 34.8494 41.7083 34.8494H45.3322C45.5849 34.8494 45.8124 34.7624 45.973 34.6019C46.1336 34.4413 46.2206 34.2139 46.2206 33.9613V11.7494C46.2206 11.4969 46.1336 11.2694 45.973 11.1089C45.8124 10.9483 45.5849 10.8613 45.3322 10.8613V10.863Z" fill="black" fill-opacity="0.2"/>
<path d="M45.3322 10.863H41.5159C41.2633 10.863 41.0408 10.9516 40.8935 11.1155C40.7446 11.2794 40.676 11.5036 40.676 11.7494V24.5939C40.676 26.4185 40.0971 27.8318 39.1301 28.7934C38.1614 29.7551 36.7945 30.2719 35.1866 30.2736C34.3701 30.2736 33.6524 30.1431 33.0333 29.8956C32.1065 29.5226 31.4004 28.8871 30.9169 27.999C30.435 27.1109 30.1807 25.9686 30.1807 24.5939V11.7494C30.1807 11.5036 30.1121 11.2794 29.9632 11.1155C29.816 10.9516 29.5935 10.8613 29.3408 10.863H25.476C25.2234 10.863 25.0008 10.9516 24.8536 11.1155C24.7047 11.2794 24.6361 11.5036 24.6361 11.7494V25.5606C24.6361 28.7048 25.5279 31.175 27.0705 32.8592C28.613 34.5433 30.8014 35.4297 33.3496 35.4297C35.2368 35.4297 36.8028 34.9631 38.066 34.1871C39.1686 33.5098 40.0402 32.5983 40.7011 31.5613L40.8199 33.9245V33.9279C40.8333 34.0817 40.855 34.2139 40.8935 34.3293C40.9487 34.5032 41.0491 34.647 41.1947 34.734C41.3402 34.821 41.5109 34.8494 41.7083 34.8494H45.3322C45.5849 34.8494 45.8124 34.7624 45.973 34.6019C46.1336 34.4413 46.2206 34.2139 46.2206 33.9613V11.7494C46.2206 11.4969 46.1336 11.2694 45.973 11.1089C45.8124 10.9483 45.5849 10.8613 45.3322 10.8613V10.863Z" fill="black" fill-opacity="0.2"/>
<path d="M62.9167 10.8471C62.9167 10.8471 62.9167 10.8471 62.915 10.8471C62.485 10.5277 61.7321 10.2868 60.6463 10.2852C59.1857 10.2852 58.0413 10.7601 57.1629 11.5395C56.4535 12.1683 55.9198 12.9895 55.5066 13.9127L55.3995 11.792C55.3995 11.6398 55.3828 11.5061 55.3493 11.389C55.2974 11.21 55.1937 11.0662 55.0515 10.9809C54.9093 10.8939 54.742 10.8655 54.5613 10.8655H50.8905C50.6379 10.8655 50.4154 10.9541 50.2681 11.118C50.1192 11.2819 50.0506 11.5061 50.0506 11.7519V33.9655C50.0506 34.2113 50.1192 34.4355 50.2681 34.5994C50.4154 34.7633 50.6379 34.8536 50.8905 34.8519H54.7554C55.008 34.8519 55.2305 34.7633 55.3777 34.5994C55.5267 34.4355 55.5953 34.2113 55.5953 33.9655V21.2163C55.5953 19.7212 55.9533 18.2695 56.753 17.2041C57.1529 16.6706 57.6615 16.2324 58.2956 15.9247C58.9297 15.617 59.6926 15.4413 60.6011 15.4413C61.2219 15.4413 61.7305 15.4882 62.2893 15.6738H62.296L62.3027 15.6772C62.4516 15.714 62.5888 15.734 62.7176 15.7357C62.818 15.7357 62.9133 15.7223 63.002 15.6922C63.1342 15.6471 63.2496 15.5567 63.3216 15.433C63.3935 15.3092 63.4236 15.1604 63.4236 14.9898V11.8991C63.4236 11.67 63.3985 11.4759 63.3182 11.3003C63.2379 11.1247 63.1058 10.9809 62.9234 10.8521L62.9167 10.8471Z" fill="#121212"/>
<path d="M62.9167 10.8471C62.9167 10.8471 62.9167 10.8471 62.915 10.8471C62.485 10.5277 61.7321 10.2868 60.6463 10.2852C59.1857 10.2852 58.0413 10.7601 57.1629 11.5395C56.4535 12.1683 55.9198 12.9895 55.5066 13.9127L55.3995 11.792C55.3995 11.6398 55.3828 11.5061 55.3493 11.389C55.2974 11.21 55.1937 11.0662 55.0515 10.9809C54.9093 10.8939 54.742 10.8655 54.5613 10.8655H50.8905C50.6379 10.8655 50.4154 10.9541 50.2681 11.118C50.1192 11.2819 50.0506 11.5061 50.0506 11.7519V33.9655C50.0506 34.2113 50.1192 34.4355 50.2681 34.5994C50.4154 34.7633 50.6379 34.8536 50.8905 34.8519H54.7554C55.008 34.8519 55.2305 34.7633 55.3777 34.5994C55.5267 34.4355 55.5953 34.2113 55.5953 33.9655V21.2163C55.5953 19.7212 55.9533 18.2695 56.753 17.2041C57.1529 16.6706 57.6615 16.2324 58.2956 15.9247C58.9297 15.617 59.6926 15.4413 60.6011 15.4413C61.2219 15.4413 61.7305 15.4882 62.2893 15.6738H62.296L62.3027 15.6772C62.4516 15.714 62.5888 15.734 62.7176 15.7357C62.818 15.7357 62.9133 15.7223 63.002 15.6922C63.1342 15.6471 63.2496 15.5567 63.3216 15.433C63.3935 15.3092 63.4236 15.1604 63.4236 14.9898V11.8991C63.4236 11.67 63.3985 11.4759 63.3182 11.3003C63.2379 11.1247 63.1058 10.9809 62.9234 10.8521L62.9167 10.8471Z" fill="black" fill-opacity="0.2"/>
<path d="M62.9167 10.8471C62.9167 10.8471 62.9167 10.8471 62.915 10.8471C62.485 10.5277 61.7321 10.2868 60.6463 10.2852C59.1857 10.2852 58.0413 10.7601 57.1629 11.5395C56.4535 12.1683 55.9198 12.9895 55.5066 13.9127L55.3995 11.792C55.3995 11.6398 55.3828 11.5061 55.3493 11.389C55.2974 11.21 55.1937 11.0662 55.0515 10.9809C54.9093 10.8939 54.742 10.8655 54.5613 10.8655H50.8905C50.6379 10.8655 50.4154 10.9541 50.2681 11.118C50.1192 11.2819 50.0506 11.5061 50.0506 11.7519V33.9655C50.0506 34.2113 50.1192 34.4355 50.2681 34.5994C50.4154 34.7633 50.6379 34.8536 50.8905 34.8519H54.7554C55.008 34.8519 55.2305 34.7633 55.3777 34.5994C55.5267 34.4355 55.5953 34.2113 55.5953 33.9655V21.2163C55.5953 19.7212 55.9533 18.2695 56.753 17.2041C57.1529 16.6706 57.6615 16.2324 58.2956 15.9247C58.9297 15.617 59.6926 15.4413 60.6011 15.4413C61.2219 15.4413 61.7305 15.4882 62.2893 15.6738H62.296L62.3027 15.6772C62.4516 15.714 62.5888 15.734 62.7176 15.7357C62.818 15.7357 62.9133 15.7223 63.002 15.6922C63.1342 15.6471 63.2496 15.5567 63.3216 15.433C63.3935 15.3092 63.4236 15.1604 63.4236 14.9898V11.8991C63.4236 11.67 63.3985 11.4759 63.3182 11.3003C63.2379 11.1247 63.1058 10.9809 62.9234 10.8521L62.9167 10.8471Z" fill="black" fill-opacity="0.2"/>
<path d="M62.9167 10.8471C62.9167 10.8471 62.9167 10.8471 62.915 10.8471C62.485 10.5277 61.7321 10.2868 60.6463 10.2852C59.1857 10.2852 58.0413 10.7601 57.1629 11.5395C56.4535 12.1683 55.9198 12.9895 55.5066 13.9127L55.3995 11.792C55.3995 11.6398 55.3828 11.5061 55.3493 11.389C55.2974 11.21 55.1937 11.0662 55.0515 10.9809C54.9093 10.8939 54.742 10.8655 54.5613 10.8655H50.8905C50.6379 10.8655 50.4154 10.9541 50.2681 11.118C50.1192 11.2819 50.0506 11.5061 50.0506 11.7519V33.9655C50.0506 34.2113 50.1192 34.4355 50.2681 34.5994C50.4154 34.7633 50.6379 34.8536 50.8905 34.8519H54.7554C55.008 34.8519 55.2305 34.7633 55.3777 34.5994C55.5267 34.4355 55.5953 34.2113 55.5953 33.9655V21.2163C55.5953 19.7212 55.9533 18.2695 56.753 17.2041C57.1529 16.6706 57.6615 16.2324 58.2956 15.9247C58.9297 15.617 59.6926 15.4413 60.6011 15.4413C61.2219 15.4413 61.7305 15.4882 62.2893 15.6738H62.296L62.3027 15.6772C62.4516 15.714 62.5888 15.734 62.7176 15.7357C62.818 15.7357 62.9133 15.7223 63.002 15.6922C63.1342 15.6471 63.2496 15.5567 63.3216 15.433C63.3935 15.3092 63.4236 15.1604 63.4236 14.9898V11.8991C63.4236 11.67 63.3985 11.4759 63.3182 11.3003C63.2379 11.1247 63.1058 10.9809 62.9234 10.8521L62.9167 10.8471Z" fill="black" fill-opacity="0.2"/>
<path d="M62.9167 10.8471C62.9167 10.8471 62.9167 10.8471 62.915 10.8471C62.485 10.5277 61.7321 10.2868 60.6463 10.2852C59.1857 10.2852 58.0413 10.7601 57.1629 11.5395C56.4535 12.1683 55.9198 12.9895 55.5066 13.9127L55.3995 11.792C55.3995 11.6398 55.3828 11.5061 55.3493 11.389C55.2974 11.21 55.1937 11.0662 55.0515 10.9809C54.9093 10.8939 54.742 10.8655 54.5613 10.8655H50.8905C50.6379 10.8655 50.4154 10.9541 50.2681 11.118C50.1192 11.2819 50.0506 11.5061 50.0506 11.7519V33.9655C50.0506 34.2113 50.1192 34.4355 50.2681 34.5994C50.4154 34.7633 50.6379 34.8536 50.8905 34.8519H54.7554C55.008 34.8519 55.2305 34.7633 55.3777 34.5994C55.5267 34.4355 55.5953 34.2113 55.5953 33.9655V21.2163C55.5953 19.7212 55.9533 18.2695 56.753 17.2041C57.1529 16.6706 57.6615 16.2324 58.2956 15.9247C58.9297 15.617 59.6926 15.4413 60.6011 15.4413C61.2219 15.4413 61.7305 15.4882 62.2893 15.6738H62.296L62.3027 15.6772C62.4516 15.714 62.5888 15.734 62.7176 15.7357C62.818 15.7357 62.9133 15.7223 63.002 15.6922C63.1342 15.6471 63.2496 15.5567 63.3216 15.433C63.3935 15.3092 63.4236 15.1604 63.4236 14.9898V11.8991C63.4236 11.67 63.3985 11.4759 63.3182 11.3003C63.2379 11.1247 63.1058 10.9809 62.9234 10.8521L62.9167 10.8471Z" fill="black" fill-opacity="0.2"/>
<path d="M79.2908 10.283C77.432 10.283 75.7991 10.6743 74.4154 11.3935C73.1857 12.0324 72.1568 12.9305 71.3386 14.036V0.885449C71.3386 0.639598 71.27 0.415488 71.1211 0.251588C70.9739 0.0876866 70.7514 -0.0026262 70.4987 -0.000953742H66.6339C66.3813 -0.000953742 66.1587 0.0876866 66.0115 0.251588C65.8626 0.415488 65.794 0.639598 65.794 0.885449V33.965C65.794 34.2109 65.8626 34.435 66.0115 34.5989C66.1587 34.7628 66.3813 34.8531 66.6339 34.8514H70.1608C70.4134 34.8514 70.6359 34.7628 70.7832 34.5989C70.9304 34.4366 70.999 34.2142 71.0007 33.97L71.081 31.3476C71.9025 32.5451 72.9498 33.5252 74.2197 34.2226C75.6401 35.0036 77.3367 35.4318 79.2925 35.4318C82.7173 35.4318 85.6168 34.072 87.6496 31.8159C89.6841 29.5614 90.8552 26.4189 90.8552 22.8582C90.8552 19.321 89.6841 16.1784 87.6496 13.9189C85.6151 11.6578 82.7173 10.2847 79.2908 10.2847V10.283ZM78.2753 15.3907C80.3616 15.3907 82.1518 16.1466 83.4234 17.4545C84.6949 18.7624 85.4545 20.6255 85.4545 22.8582C85.4545 25.116 84.6949 26.9775 83.4234 28.2803C82.1501 29.5815 80.3616 30.3257 78.2736 30.3257C76.2107 30.3257 74.4707 29.5815 73.2409 28.2887C72.0112 26.9942 71.2868 25.1428 71.2868 22.9084C71.2868 20.6489 72.0112 18.7724 73.2409 17.4612C74.4723 16.15 76.2107 15.394 78.2736 15.394L78.2753 15.3907Z" fill="#121212"/>
<path d="M79.2908 10.283C77.432 10.283 75.7991 10.6743 74.4154 11.3935C73.1857 12.0324 72.1568 12.9305 71.3386 14.036V0.885449C71.3386 0.639598 71.27 0.415488 71.1211 0.251588C70.9739 0.0876866 70.7514 -0.0026262 70.4987 -0.000953742H66.6339C66.3813 -0.000953742 66.1587 0.0876866 66.0115 0.251588C65.8626 0.415488 65.794 0.639598 65.794 0.885449V33.965C65.794 34.2109 65.8626 34.435 66.0115 34.5989C66.1587 34.7628 66.3813 34.8531 66.6339 34.8514H70.1608C70.4134 34.8514 70.6359 34.7628 70.7832 34.5989C70.9304 34.4366 70.999 34.2142 71.0007 33.97L71.081 31.3476C71.9025 32.5451 72.9498 33.5252 74.2197 34.2226C75.6401 35.0036 77.3367 35.4318 79.2925 35.4318C82.7173 35.4318 85.6168 34.072 87.6496 31.8159C89.6841 29.5614 90.8552 26.4189 90.8552 22.8582C90.8552 19.321 89.6841 16.1784 87.6496 13.9189C85.6151 11.6578 82.7173 10.2847 79.2908 10.2847V10.283ZM78.2753 15.3907C80.3616 15.3907 82.1518 16.1466 83.4234 17.4545C84.6949 18.7624 85.4545 20.6255 85.4545 22.8582C85.4545 25.116 84.6949 26.9775 83.4234 28.2803C82.1501 29.5815 80.3616 30.3257 78.2736 30.3257C76.2107 30.3257 74.4707 29.5815 73.2409 28.2887C72.0112 26.9942 71.2868 25.1428 71.2868 22.9084C71.2868 20.6489 72.0112 18.7724 73.2409 17.4612C74.4723 16.15 76.2107 15.394 78.2736 15.394L78.2753 15.3907Z" fill="black" fill-opacity="0.2"/>
<path d="M79.2908 10.283C77.432 10.283 75.7991 10.6743 74.4154 11.3935C73.1857 12.0324 72.1568 12.9305 71.3386 14.036V0.885449C71.3386 0.639598 71.27 0.415488 71.1211 0.251588C70.9739 0.0876866 70.7514 -0.0026262 70.4987 -0.000953742H66.6339C66.3813 -0.000953742 66.1587 0.0876866 66.0115 0.251588C65.8626 0.415488 65.794 0.639598 65.794 0.885449V33.965C65.794 34.2109 65.8626 34.435 66.0115 34.5989C66.1587 34.7628 66.3813 34.8531 66.6339 34.8514H70.1608C70.4134 34.8514 70.6359 34.7628 70.7832 34.5989C70.9304 34.4366 70.999 34.2142 71.0007 33.97L71.081 31.3476C71.9025 32.5451 72.9498 33.5252 74.2197 34.2226C75.6401 35.0036 77.3367 35.4318 79.2925 35.4318C82.7173 35.4318 85.6168 34.072 87.6496 31.8159C89.6841 29.5614 90.8552 26.4189 90.8552 22.8582C90.8552 19.321 89.6841 16.1784 87.6496 13.9189C85.6151 11.6578 82.7173 10.2847 79.2908 10.2847V10.283ZM78.2753 15.3907C80.3616 15.3907 82.1518 16.1466 83.4234 17.4545C84.6949 18.7624 85.4545 20.6255 85.4545 22.8582C85.4545 25.116 84.6949 26.9775 83.4234 28.2803C82.1501 29.5815 80.3616 30.3257 78.2736 30.3257C76.2107 30.3257 74.4707 29.5815 73.2409 28.2887C72.0112 26.9942 71.2868 25.1428 71.2868 22.9084C71.2868 20.6489 72.0112 18.7724 73.2409 17.4612C74.4723 16.15 76.2107 15.394 78.2736 15.394L78.2753 15.3907Z" fill="black" fill-opacity="0.2"/>
<path d="M79.2908 10.283C77.432 10.283 75.7991 10.6743 74.4154 11.3935C73.1857 12.0324 72.1568 12.9305 71.3386 14.036V0.885449C71.3386 0.639598 71.27 0.415488 71.1211 0.251588C70.9739 0.0876866 70.7514 -0.0026262 70.4987 -0.000953742H66.6339C66.3813 -0.000953742 66.1587 0.0876866 66.0115 0.251588C65.8626 0.415488 65.794 0.639598 65.794 0.885449V33.965C65.794 34.2109 65.8626 34.435 66.0115 34.5989C66.1587 34.7628 66.3813 34.8531 66.6339 34.8514H70.1608C70.4134 34.8514 70.6359 34.7628 70.7832 34.5989C70.9304 34.4366 70.999 34.2142 71.0007 33.97L71.081 31.3476C71.9025 32.5451 72.9498 33.5252 74.2197 34.2226C75.6401 35.0036 77.3367 35.4318 79.2925 35.4318C82.7173 35.4318 85.6168 34.072 87.6496 31.8159C89.6841 29.5614 90.8552 26.4189 90.8552 22.8582C90.8552 19.321 89.6841 16.1784 87.6496 13.9189C85.6151 11.6578 82.7173 10.2847 79.2908 10.2847V10.283ZM78.2753 15.3907C80.3616 15.3907 82.1518 16.1466 83.4234 17.4545C84.6949 18.7624 85.4545 20.6255 85.4545 22.8582C85.4545 25.116 84.6949 26.9775 83.4234 28.2803C82.1501 29.5815 80.3616 30.3257 78.2736 30.3257C76.2107 30.3257 74.4707 29.5815 73.2409 28.2887C72.0112 26.9942 71.2868 25.1428 71.2868 22.9084C71.2868 20.6489 72.0112 18.7724 73.2409 17.4612C74.4723 16.15 76.2107 15.394 78.2736 15.394L78.2753 15.3907Z" fill="black" fill-opacity="0.2"/>
<path d="M79.2908 10.283C77.432 10.283 75.7991 10.6743 74.4154 11.3935C73.1857 12.0324 72.1568 12.9305 71.3386 14.036V0.885449C71.3386 0.639598 71.27 0.415488 71.1211 0.251588C70.9739 0.0876866 70.7514 -0.0026262 70.4987 -0.000953742H66.6339C66.3813 -0.000953742 66.1587 0.0876866 66.0115 0.251588C65.8626 0.415488 65.794 0.639598 65.794 0.885449V33.965C65.794 34.2109 65.8626 34.435 66.0115 34.5989C66.1587 34.7628 66.3813 34.8531 66.6339 34.8514H70.1608C70.4134 34.8514 70.6359 34.7628 70.7832 34.5989C70.9304 34.4366 70.999 34.2142 71.0007 33.97L71.081 31.3476C71.9025 32.5451 72.9498 33.5252 74.2197 34.2226C75.6401 35.0036 77.3367 35.4318 79.2925 35.4318C82.7173 35.4318 85.6168 34.072 87.6496 31.8159C89.6841 29.5614 90.8552 26.4189 90.8552 22.8582C90.8552 19.321 89.6841 16.1784 87.6496 13.9189C85.6151 11.6578 82.7173 10.2847 79.2908 10.2847V10.283ZM78.2753 15.3907C80.3616 15.3907 82.1518 16.1466 83.4234 17.4545C84.6949 18.7624 85.4545 20.6255 85.4545 22.8582C85.4545 25.116 84.6949 26.9775 83.4234 28.2803C82.1501 29.5815 80.3616 30.3257 78.2736 30.3257C76.2107 30.3257 74.4707 29.5815 73.2409 28.2887C72.0112 26.9942 71.2868 25.1428 71.2868 22.9084C71.2868 20.6489 72.0112 18.7724 73.2409 17.4612C74.4723 16.15 76.2107 15.394 78.2736 15.394L78.2753 15.3907Z" fill="black" fill-opacity="0.2"/>
<path d="M115.877 21.6968C115.877 18.7131 114.838 15.8599 112.894 13.7509C110.95 11.6403 108.099 10.2806 104.507 10.2822C100.868 10.2822 97.8126 11.6403 95.6744 13.8814C93.5362 16.1225 92.3132 19.2449 92.3149 22.7588C92.3149 26.3228 93.5864 29.4938 95.8401 31.7717C98.0937 34.0495 101.328 35.431 105.231 35.4293C108.594 35.4293 111.683 34.4559 113.799 32.3888C113.921 32.265 114.022 32.148 114.093 32.0242C114.165 31.9021 114.209 31.77 114.209 31.6328C114.209 31.4522 114.135 31.2799 114.008 31.111L112.656 29.2763C112.588 29.176 112.506 29.094 112.412 29.0372C112.315 28.9786 112.206 28.9485 112.094 28.9485C111.945 28.9485 111.798 29.0004 111.662 29.0924C109.8 30.3317 107.958 30.8986 105.666 30.9003C103.352 30.9003 101.52 30.2815 100.188 29.2094C98.9035 28.1742 98.0803 26.7125 97.7457 24.948H113.491C113.953 24.948 114.338 24.8828 114.657 24.744C114.897 24.6403 115.099 24.4931 115.26 24.3058C115.502 24.0265 115.656 23.6636 115.748 23.2304C115.84 22.7956 115.875 22.2855 115.875 21.6951L115.877 21.6968ZM99.9157 16.5874C101.104 15.5588 102.68 15.0036 104.507 15.0036C106.334 15.0036 107.86 15.5705 108.967 16.6024C110.04 17.6026 110.726 19.0442 110.898 20.8589H97.6922C97.9799 19.0242 98.7663 17.5825 99.9157 16.5874Z" fill="#121212"/>
<path d="M115.877 21.6968C115.877 18.7131 114.838 15.8599 112.894 13.7509C110.95 11.6403 108.099 10.2806 104.507 10.2822C100.868 10.2822 97.8126 11.6403 95.6744 13.8814C93.5362 16.1225 92.3132 19.2449 92.3149 22.7588C92.3149 26.3228 93.5864 29.4938 95.8401 31.7717C98.0937 34.0495 101.328 35.431 105.231 35.4293C108.594 35.4293 111.683 34.4559 113.799 32.3888C113.921 32.265 114.022 32.148 114.093 32.0242C114.165 31.9021 114.209 31.77 114.209 31.6328C114.209 31.4522 114.135 31.2799 114.008 31.111L112.656 29.2763C112.588 29.176 112.506 29.094 112.412 29.0372C112.315 28.9786 112.206 28.9485 112.094 28.9485C111.945 28.9485 111.798 29.0004 111.662 29.0924C109.8 30.3317 107.958 30.8986 105.666 30.9003C103.352 30.9003 101.52 30.2815 100.188 29.2094C98.9035 28.1742 98.0803 26.7125 97.7457 24.948H113.491C113.953 24.948 114.338 24.8828 114.657 24.744C114.897 24.6403 115.099 24.4931 115.26 24.3058C115.502 24.0265 115.656 23.6636 115.748 23.2304C115.84 22.7956 115.875 22.2855 115.875 21.6951L115.877 21.6968ZM99.9157 16.5874C101.104 15.5588 102.68 15.0036 104.507 15.0036C106.334 15.0036 107.86 15.5705 108.967 16.6024C110.04 17.6026 110.726 19.0442 110.898 20.8589H97.6922C97.9799 19.0242 98.7663 17.5825 99.9157 16.5874Z" fill="black" fill-opacity="0.2"/>
<path d="M115.877 21.6968C115.877 18.7131 114.838 15.8599 112.894 13.7509C110.95 11.6403 108.099 10.2806 104.507 10.2822C100.868 10.2822 97.8126 11.6403 95.6744 13.8814C93.5362 16.1225 92.3132 19.2449 92.3149 22.7588C92.3149 26.3228 93.5864 29.4938 95.8401 31.7717C98.0937 34.0495 101.328 35.431 105.231 35.4293C108.594 35.4293 111.683 34.4559 113.799 32.3888C113.921 32.265 114.022 32.148 114.093 32.0242C114.165 31.9021 114.209 31.77 114.209 31.6328C114.209 31.4522 114.135 31.2799 114.008 31.111L112.656 29.2763C112.588 29.176 112.506 29.094 112.412 29.0372C112.315 28.9786 112.206 28.9485 112.094 28.9485C111.945 28.9485 111.798 29.0004 111.662 29.0924C109.8 30.3317 107.958 30.8986 105.666 30.9003C103.352 30.9003 101.52 30.2815 100.188 29.2094C98.9035 28.1742 98.0803 26.7125 97.7457 24.948H113.491C113.953 24.948 114.338 24.8828 114.657 24.744C114.897 24.6403 115.099 24.4931 115.26 24.3058C115.502 24.0265 115.656 23.6636 115.748 23.2304C115.84 22.7956 115.875 22.2855 115.875 21.6951L115.877 21.6968ZM99.9157 16.5874C101.104 15.5588 102.68 15.0036 104.507 15.0036C106.334 15.0036 107.86 15.5705 108.967 16.6024C110.04 17.6026 110.726 19.0442 110.898 20.8589H97.6922C97.9799 19.0242 98.7663 17.5825 99.9157 16.5874Z" fill="black" fill-opacity="0.2"/>
<path d="M115.877 21.6968C115.877 18.7131 114.838 15.8599 112.894 13.7509C110.95 11.6403 108.099 10.2806 104.507 10.2822C100.868 10.2822 97.8126 11.6403 95.6744 13.8814C93.5362 16.1225 92.3132 19.2449 92.3149 22.7588C92.3149 26.3228 93.5864 29.4938 95.8401 31.7717C98.0937 34.0495 101.328 35.431 105.231 35.4293C108.594 35.4293 111.683 34.4559 113.799 32.3888C113.921 32.265 114.022 32.148 114.093 32.0242C114.165 31.9021 114.209 31.77 114.209 31.6328C114.209 31.4522 114.135 31.2799 114.008 31.111L112.656 29.2763C112.588 29.176 112.506 29.094 112.412 29.0372C112.315 28.9786 112.206 28.9485 112.094 28.9485C111.945 28.9485 111.798 29.0004 111.662 29.0924C109.8 30.3317 107.958 30.8986 105.666 30.9003C103.352 30.9003 101.52 30.2815 100.188 29.2094C98.9035 28.1742 98.0803 26.7125 97.7457 24.948H113.491C113.953 24.948 114.338 24.8828 114.657 24.744C114.897 24.6403 115.099 24.4931 115.26 24.3058C115.502 24.0265 115.656 23.6636 115.748 23.2304C115.84 22.7956 115.875 22.2855 115.875 21.6951L115.877 21.6968ZM99.9157 16.5874C101.104 15.5588 102.68 15.0036 104.507 15.0036C106.334 15.0036 107.86 15.5705 108.967 16.6024C110.04 17.6026 110.726 19.0442 110.898 20.8589H97.6922C97.9799 19.0242 98.7663 17.5825 99.9157 16.5874Z" fill="black" fill-opacity="0.2"/>
<path d="M115.877 21.6968C115.877 18.7131 114.838 15.8599 112.894 13.7509C110.95 11.6403 108.099 10.2806 104.507 10.2822C100.868 10.2822 97.8126 11.6403 95.6744 13.8814C93.5362 16.1225 92.3132 19.2449 92.3149 22.7588C92.3149 26.3228 93.5864 29.4938 95.8401 31.7717C98.0937 34.0495 101.328 35.431 105.231 35.4293C108.594 35.4293 111.683 34.4559 113.799 32.3888C113.921 32.265 114.022 32.148 114.093 32.0242C114.165 31.9021 114.209 31.77 114.209 31.6328C114.209 31.4522 114.135 31.2799 114.008 31.111L112.656 29.2763C112.588 29.176 112.506 29.094 112.412 29.0372C112.315 28.9786 112.206 28.9485 112.094 28.9485C111.945 28.9485 111.798 29.0004 111.662 29.0924C109.8 30.3317 107.958 30.8986 105.666 30.9003C103.352 30.9003 101.52 30.2815 100.188 29.2094C98.9035 28.1742 98.0803 26.7125 97.7457 24.948H113.491C113.953 24.948 114.338 24.8828 114.657 24.744C114.897 24.6403 115.099 24.4931 115.26 24.3058C115.502 24.0265 115.656 23.6636 115.748 23.2304C115.84 22.7956 115.875 22.2855 115.875 21.6951L115.877 21.6968ZM99.9157 16.5874C101.104 15.5588 102.68 15.0036 104.507 15.0036C106.334 15.0036 107.86 15.5705 108.967 16.6024C110.04 17.6026 110.726 19.0442 110.898 20.8589H97.6922C97.9799 19.0242 98.7663 17.5825 99.9157 16.5874Z" fill="black" fill-opacity="0.2"/>
<path d="M136.912 33.7312L129.723 22.5676L136.574 11.9842C136.698 11.8053 136.767 11.628 136.767 11.4557C136.767 11.3688 136.748 11.2835 136.71 11.2066C136.653 11.0912 136.553 11.0025 136.43 10.9456C136.308 10.8888 136.164 10.862 136.002 10.862H131.799C131.587 10.862 131.388 10.9022 131.214 10.9958C131.041 11.0895 130.899 11.2333 130.79 11.4223L126.387 18.5854L121.936 11.4206C121.831 11.2383 121.704 11.0928 121.543 10.9975C121.381 10.9005 121.19 10.8604 120.978 10.8604H116.726C116.519 10.8604 116.337 10.9122 116.203 11.0209C116.067 11.1296 115.994 11.2985 115.995 11.4741C115.995 11.6364 116.05 11.8053 116.153 11.9759V11.9792L123.054 22.5642L115.865 33.7279C115.741 33.9068 115.672 34.0824 115.672 34.2564C115.672 34.3433 115.691 34.4286 115.729 34.5056C115.786 34.621 115.886 34.7096 116.009 34.7665C116.131 34.8233 116.275 34.8501 116.437 34.8501H120.64C120.852 34.8501 121.051 34.81 121.225 34.7163C121.398 34.6226 121.54 34.4788 121.649 34.2898L126.388 26.5965L131.128 34.2915C131.234 34.4738 131.361 34.6193 131.522 34.7146C131.684 34.8116 131.875 34.8518 132.087 34.8518H136.338C136.546 34.8518 136.73 34.7999 136.869 34.6946C137.009 34.5892 137.093 34.4203 137.091 34.2397C137.091 34.0741 137.028 33.9018 136.909 33.7312H136.912Z" fill="#121212"/>
<path d="M136.912 33.7312L129.723 22.5676L136.574 11.9842C136.698 11.8053 136.767 11.628 136.767 11.4557C136.767 11.3688 136.748 11.2835 136.71 11.2066C136.653 11.0912 136.553 11.0025 136.43 10.9456C136.308 10.8888 136.164 10.862 136.002 10.862H131.799C131.587 10.862 131.388 10.9022 131.214 10.9958C131.041 11.0895 130.899 11.2333 130.79 11.4223L126.387 18.5854L121.936 11.4206C121.831 11.2383 121.704 11.0928 121.543 10.9975C121.381 10.9005 121.19 10.8604 120.978 10.8604H116.726C116.519 10.8604 116.337 10.9122 116.203 11.0209C116.067 11.1296 115.994 11.2985 115.995 11.4741C115.995 11.6364 116.05 11.8053 116.153 11.9759V11.9792L123.054 22.5642L115.865 33.7279C115.741 33.9068 115.672 34.0824 115.672 34.2564C115.672 34.3433 115.691 34.4286 115.729 34.5056C115.786 34.621 115.886 34.7096 116.009 34.7665C116.131 34.8233 116.275 34.8501 116.437 34.8501H120.64C120.852 34.8501 121.051 34.81 121.225 34.7163C121.398 34.6226 121.54 34.4788 121.649 34.2898L126.388 26.5965L131.128 34.2915C131.234 34.4738 131.361 34.6193 131.522 34.7146C131.684 34.8116 131.875 34.8518 132.087 34.8518H136.338C136.546 34.8518 136.73 34.7999 136.869 34.6946C137.009 34.5892 137.093 34.4203 137.091 34.2397C137.091 34.0741 137.028 33.9018 136.909 33.7312H136.912Z" fill="black" fill-opacity="0.2"/>
<path d="M136.912 33.7312L129.723 22.5676L136.574 11.9842C136.698 11.8053 136.767 11.628 136.767 11.4557C136.767 11.3688 136.748 11.2835 136.71 11.2066C136.653 11.0912 136.553 11.0025 136.43 10.9456C136.308 10.8888 136.164 10.862 136.002 10.862H131.799C131.587 10.862 131.388 10.9022 131.214 10.9958C131.041 11.0895 130.899 11.2333 130.79 11.4223L126.387 18.5854L121.936 11.4206C121.831 11.2383 121.704 11.0928 121.543 10.9975C121.381 10.9005 121.19 10.8604 120.978 10.8604H116.726C116.519 10.8604 116.337 10.9122 116.203 11.0209C116.067 11.1296 115.994 11.2985 115.995 11.4741C115.995 11.6364 116.05 11.8053 116.153 11.9759V11.9792L123.054 22.5642L115.865 33.7279C115.741 33.9068 115.672 34.0824 115.672 34.2564C115.672 34.3433 115.691 34.4286 115.729 34.5056C115.786 34.621 115.886 34.7096 116.009 34.7665C116.131 34.8233 116.275 34.8501 116.437 34.8501H120.64C120.852 34.8501 121.051 34.81 121.225 34.7163C121.398 34.6226 121.54 34.4788 121.649 34.2898L126.388 26.5965L131.128 34.2915C131.234 34.4738 131.361 34.6193 131.522 34.7146C131.684 34.8116 131.875 34.8518 132.087 34.8518H136.338C136.546 34.8518 136.73 34.7999 136.869 34.6946C137.009 34.5892 137.093 34.4203 137.091 34.2397C137.091 34.0741 137.028 33.9018 136.909 33.7312H136.912Z" fill="black" fill-opacity="0.2"/>
<path d="M136.912 33.7312L129.723 22.5676L136.574 11.9842C136.698 11.8053 136.767 11.628 136.767 11.4557C136.767 11.3688 136.748 11.2835 136.71 11.2066C136.653 11.0912 136.553 11.0025 136.43 10.9456C136.308 10.8888 136.164 10.862 136.002 10.862H131.799C131.587 10.862 131.388 10.9022 131.214 10.9958C131.041 11.0895 130.899 11.2333 130.79 11.4223L126.387 18.5854L121.936 11.4206C121.831 11.2383 121.704 11.0928 121.543 10.9975C121.381 10.9005 121.19 10.8604 120.978 10.8604H116.726C116.519 10.8604 116.337 10.9122 116.203 11.0209C116.067 11.1296 115.994 11.2985 115.995 11.4741C115.995 11.6364 116.05 11.8053 116.153 11.9759V11.9792L123.054 22.5642L115.865 33.7279C115.741 33.9068 115.672 34.0824 115.672 34.2564C115.672 34.3433 115.691 34.4286 115.729 34.5056C115.786 34.621 115.886 34.7096 116.009 34.7665C116.131 34.8233 116.275 34.8501 116.437 34.8501H120.64C120.852 34.8501 121.051 34.81 121.225 34.7163C121.398 34.6226 121.54 34.4788 121.649 34.2898L126.388 26.5965L131.128 34.2915C131.234 34.4738 131.361 34.6193 131.522 34.7146C131.684 34.8116 131.875 34.8518 132.087 34.8518H136.338C136.546 34.8518 136.73 34.7999 136.869 34.6946C137.009 34.5892 137.093 34.4203 137.091 34.2397C137.091 34.0741 137.028 33.9018 136.909 33.7312H136.912Z" fill="black" fill-opacity="0.2"/>
<path d="M136.912 33.7312L129.723 22.5676L136.574 11.9842C136.698 11.8053 136.767 11.628 136.767 11.4557C136.767 11.3688 136.748 11.2835 136.71 11.2066C136.653 11.0912 136.553 11.0025 136.43 10.9456C136.308 10.8888 136.164 10.862 136.002 10.862H131.799C131.587 10.862 131.388 10.9022 131.214 10.9958C131.041 11.0895 130.899 11.2333 130.79 11.4223L126.387 18.5854L121.936 11.4206C121.831 11.2383 121.704 11.0928 121.543 10.9975C121.381 10.9005 121.19 10.8604 120.978 10.8604H116.726C116.519 10.8604 116.337 10.9122 116.203 11.0209C116.067 11.1296 115.994 11.2985 115.995 11.4741C115.995 11.6364 116.05 11.8053 116.153 11.9759V11.9792L123.054 22.5642L115.865 33.7279C115.741 33.9068 115.672 34.0824 115.672 34.2564C115.672 34.3433 115.691 34.4286 115.729 34.5056C115.786 34.621 115.886 34.7096 116.009 34.7665C116.131 34.8233 116.275 34.8501 116.437 34.8501H120.64C120.852 34.8501 121.051 34.81 121.225 34.7163C121.398 34.6226 121.54 34.4788 121.649 34.2898L126.388 26.5965L131.128 34.2915C131.234 34.4738 131.361 34.6193 131.522 34.7146C131.684 34.8116 131.875 34.8518 132.087 34.8518H136.338C136.546 34.8518 136.73 34.7999 136.869 34.6946C137.009 34.5892 137.093 34.4203 137.091 34.2397C137.091 34.0741 137.028 33.9018 136.909 33.7312H136.912Z" fill="black" fill-opacity="0.2"/>
</svg>
