<svg width="144" height="36" viewBox="0 0 144 36" fill="none" xmlns="http://www.w3.org/2000/svg">
<path d="M142.113 8.57521C142.113 8.06177 141.702 7.88281 141.128 7.88281H140.246V10.3447H140.604V9.3044H141.113L141.79 10.3447H142.197L141.479 9.26761C141.861 9.18566 142.113 8.95988 142.113 8.57521ZM140.606 8.13535H141.078C141.516 8.13535 141.757 8.25075 141.757 8.57521C141.757 8.89967 141.516 9.05019 141.078 9.05019H140.606V8.13703V8.13535Z" fill="#121212"/>
<path d="M142.113 8.57521C142.113 8.06177 141.702 7.88281 141.128 7.88281H140.246V10.3447H140.604V9.3044H141.113L141.79 10.3447H142.197L141.479 9.26761C141.861 9.18566 142.113 8.95988 142.113 8.57521ZM140.606 8.13535H141.078C141.516 8.13535 141.757 8.25075 141.757 8.57521C141.757 8.89967 141.516 9.05019 141.078 9.05019H140.606V8.13703V8.13535Z" fill="black" fill-opacity="0.2"/>
<path d="M142.113 8.57521C142.113 8.06177 141.702 7.88281 141.128 7.88281H140.246V10.3447H140.604V9.3044H141.113L141.79 10.3447H142.197L141.479 9.26761C141.861 9.18566 142.113 8.95988 142.113 8.57521ZM140.606 8.13535H141.078C141.516 8.13535 141.757 8.25075 141.757 8.57521C141.757 8.89967 141.516 9.05019 141.078 9.05019H140.606V8.13703V8.13535Z" fill="black" fill-opacity="0.2"/>
<path d="M142.113 8.57521C142.113 8.06177 141.702 7.88281 141.128 7.88281H140.246V10.3447H140.604V9.3044H141.113L141.79 10.3447H142.197L141.479 9.26761C141.861 9.18566 142.113 8.95988 142.113 8.57521ZM140.606 8.13535H141.078C141.516 8.13535 141.757 8.25075 141.757 8.57521C141.757 8.89967 141.516 9.05019 141.078 9.05019H140.606V8.13703V8.13535Z" fill="black" fill-opacity="0.2"/>
<path d="M142.113 8.57521C142.113 8.06177 141.702 7.88281 141.128 7.88281H140.246V10.3447H140.604V9.3044H141.113L141.79 10.3447H142.197L141.479 9.26761C141.861 9.18566 142.113 8.95988 142.113 8.57521ZM140.606 8.13535H141.078C141.516 8.13535 141.757 8.25075 141.757 8.57521C141.757 8.89967 141.516 9.05019 141.078 9.05019H140.606V8.13703V8.13535Z" fill="black" fill-opacity="0.2"/>
<path d="M141.126 7C139.952 7 139 7.95163 139 9.12569C139 10.2998 139.952 11.2514 141.126 11.2514C142.301 11.2514 143.253 10.2998 143.253 9.12569C143.253 7.95163 142.301 7 141.126 7ZM141.126 10.957C140.114 10.9554 139.294 10.1359 139.293 9.12402C139.294 8.11218 140.114 7.29268 141.126 7.29101C142.139 7.29268 142.959 8.11218 142.96 9.12402C142.959 10.1359 142.139 10.9554 141.126 10.957Z" fill="#121212"/>
<path d="M141.126 7C139.952 7 139 7.95163 139 9.12569C139 10.2998 139.952 11.2514 141.126 11.2514C142.301 11.2514 143.253 10.2998 143.253 9.12569C143.253 7.95163 142.301 7 141.126 7ZM141.126 10.957C140.114 10.9554 139.294 10.1359 139.293 9.12402C139.294 8.11218 140.114 7.29268 141.126 7.29101C142.139 7.29268 142.959 8.11218 142.96 9.12402C142.959 10.1359 142.139 10.9554 141.126 10.957Z" fill="black" fill-opacity="0.2"/>
<path d="M141.126 7C139.952 7 139 7.95163 139 9.12569C139 10.2998 139.952 11.2514 141.126 11.2514C142.301 11.2514 143.253 10.2998 143.253 9.12569C143.253 7.95163 142.301 7 141.126 7ZM141.126 10.957C140.114 10.9554 139.294 10.1359 139.293 9.12402C139.294 8.11218 140.114 7.29268 141.126 7.29101C142.139 7.29268 142.959 8.11218 142.96 9.12402C142.959 10.1359 142.139 10.9554 141.126 10.957Z" fill="black" fill-opacity="0.2"/>
<path d="M141.126 7C139.952 7 139 7.95163 139 9.12569C139 10.2998 139.952 11.2514 141.126 11.2514C142.301 11.2514 143.253 10.2998 143.253 9.12569C143.253 7.95163 142.301 7 141.126 7ZM141.126 10.957C140.114 10.9554 139.294 10.1359 139.293 9.12402C139.294 8.11218 140.114 7.29268 141.126 7.29101C142.139 7.29268 142.959 8.11218 142.96 9.12402C142.959 10.1359 142.139 10.9554 141.126 10.957Z" fill="black" fill-opacity="0.2"/>
<path d="M141.126 7C139.952 7 139 7.95163 139 9.12569C139 10.2998 139.952 11.2514 141.126 11.2514C142.301 11.2514 143.253 10.2998 143.253 9.12569C143.253 7.95163 142.301 7 141.126 7ZM141.126 10.957C140.114 10.9554 139.294 10.1359 139.293 9.12402C139.294 8.11218 140.114 7.29268 141.126 7.29101C142.139 7.29268 142.959 8.11218 142.96 9.12402C142.959 10.1359 142.139 10.9554 141.126 10.957Z" fill="black" fill-opacity="0.2"/>
<path d="M19.5032 27.9555C19.3041 27.7565 19.0649 27.6595 18.8306 27.6595C18.5429 27.6595 18.2768 27.7967 18.0677 28.0057H18.066C17.4001 28.6981 16.679 29.2634 15.8325 29.6581C14.9859 30.0528 14.0088 30.2769 12.8209 30.2769C10.589 30.2769 8.72684 29.4725 7.41848 28.1412C6.11013 26.8082 5.35222 24.9451 5.35222 22.8111C5.35222 20.677 6.11013 18.8373 7.40677 17.5294C8.70342 16.2216 10.5421 15.4422 12.7255 15.4405C13.9368 15.4405 14.9256 15.6646 15.7856 16.0593C16.6456 16.454 17.3784 17.0193 18.0694 17.7101C18.2534 17.9208 18.5111 18.0563 18.7888 18.0563C19.0197 18.0563 19.2573 17.9593 19.4564 17.7602L21.6314 15.683C21.7987 15.5158 21.8974 15.3134 21.8957 15.096C21.8957 14.8786 21.8037 14.6662 21.6464 14.4555L21.6448 14.4504C19.5852 11.9016 16.3946 10.2843 12.4846 10.286C8.91757 10.286 5.79391 11.6307 3.56536 13.8718C1.33345 16.1095 0 19.2437 0 22.8094C0 26.4002 1.34516 29.5578 3.59213 31.8156C5.83909 34.0734 8.98617 35.4314 12.5783 35.4314C16.4398 35.4314 19.632 33.8158 21.6899 31.267V31.2637L21.6933 31.262C21.8506 31.0513 21.9426 30.8372 21.9426 30.6214C21.9426 30.404 21.8455 30.2017 21.6782 30.0361L19.5015 27.9572L19.5032 27.9555Z" fill="#121212"/>
<path d="M19.5032 27.9555C19.3041 27.7565 19.0649 27.6595 18.8306 27.6595C18.5429 27.6595 18.2768 27.7967 18.0677 28.0057H18.066C17.4001 28.6981 16.679 29.2634 15.8325 29.6581C14.9859 30.0528 14.0088 30.2769 12.8209 30.2769C10.589 30.2769 8.72684 29.4725 7.41848 28.1412C6.11013 26.8082 5.35222 24.9451 5.35222 22.8111C5.35222 20.677 6.11013 18.8373 7.40677 17.5294C8.70342 16.2216 10.5421 15.4422 12.7255 15.4405C13.9368 15.4405 14.9256 15.6646 15.7856 16.0593C16.6456 16.454 17.3784 17.0193 18.0694 17.7101C18.2534 17.9208 18.5111 18.0563 18.7888 18.0563C19.0197 18.0563 19.2573 17.9593 19.4564 17.7602L21.6314 15.683C21.7987 15.5158 21.8974 15.3134 21.8957 15.096C21.8957 14.8786 21.8037 14.6662 21.6464 14.4555L21.6448 14.4504C19.5852 11.9016 16.3946 10.2843 12.4846 10.286C8.91757 10.286 5.79391 11.6307 3.56536 13.8718C1.33345 16.1095 0 19.2437 0 22.8094C0 26.4002 1.34516 29.5578 3.59213 31.8156C5.83909 34.0734 8.98617 35.4314 12.5783 35.4314C16.4398 35.4314 19.632 33.8158 21.6899 31.267V31.2637L21.6933 31.262C21.8506 31.0513 21.9426 30.8372 21.9426 30.6214C21.9426 30.404 21.8455 30.2017 21.6782 30.0361L19.5015 27.9572L19.5032 27.9555Z" fill="black" fill-opacity="0.2"/>
<path d="M19.5032 27.9555C19.3041 27.7565 19.0649 27.6595 18.8306 27.6595C18.5429 27.6595 18.2768 27.7967 18.0677 28.0057H18.066C17.4001 28.6981 16.679 29.2634 15.8325 29.6581C14.9859 30.0528 14.0088 30.2769 12.8209 30.2769C10.589 30.2769 8.72684 29.4725 7.41848 28.1412C6.11013 26.8082 5.35222 24.9451 5.35222 22.8111C5.35222 20.677 6.11013 18.8373 7.40677 17.5294C8.70342 16.2216 10.5421 15.4422 12.7255 15.4405C13.9368 15.4405 14.9256 15.6646 15.7856 16.0593C16.6456 16.454 17.3784 17.0193 18.0694 17.7101C18.2534 17.9208 18.5111 18.0563 18.7888 18.0563C19.0197 18.0563 19.2573 17.9593 19.4564 17.7602L21.6314 15.683C21.7987 15.5158 21.8974 15.3134 21.8957 15.096C21.8957 14.8786 21.8037 14.6662 21.6464 14.4555L21.6448 14.4504C19.5852 11.9016 16.3946 10.2843 12.4846 10.286C8.91757 10.286 5.79391 11.6307 3.56536 13.8718C1.33345 16.1095 0 19.2437 0 22.8094C0 26.4002 1.34516 29.5578 3.59213 31.8156C5.83909 34.0734 8.98617 35.4314 12.5783 35.4314C16.4398 35.4314 19.632 33.8158 21.6899 31.267V31.2637L21.6933 31.262C21.8506 31.0513 21.9426 30.8372 21.9426 30.6214C21.9426 30.404 21.8455 30.2017 21.6782 30.0361L19.5015 27.9572L19.5032 27.9555Z" fill="black" fill-opacity="0.2"/>
<path d="M19.5032 27.9555C19.3041 27.7565 19.0649 27.6595 18.8306 27.6595C18.5429 27.6595 18.2768 27.7967 18.0677 28.0057H18.066C17.4001 28.6981 16.679 29.2634 15.8325 29.6581C14.9859 30.0528 14.0088 30.2769 12.8209 30.2769C10.589 30.2769 8.72684 29.4725 7.41848 28.1412C6.11013 26.8082 5.35222 24.9451 5.35222 22.8111C5.35222 20.677 6.11013 18.8373 7.40677 17.5294C8.70342 16.2216 10.5421 15.4422 12.7255 15.4405C13.9368 15.4405 14.9256 15.6646 15.7856 16.0593C16.6456 16.454 17.3784 17.0193 18.0694 17.7101C18.2534 17.9208 18.5111 18.0563 18.7888 18.0563C19.0197 18.0563 19.2573 17.9593 19.4564 17.7602L21.6314 15.683C21.7987 15.5158 21.8974 15.3134 21.8957 15.096C21.8957 14.8786 21.8037 14.6662 21.6464 14.4555L21.6448 14.4504C19.5852 11.9016 16.3946 10.2843 12.4846 10.286C8.91757 10.286 5.79391 11.6307 3.56536 13.8718C1.33345 16.1095 0 19.2437 0 22.8094C0 26.4002 1.34516 29.5578 3.59213 31.8156C5.83909 34.0734 8.98617 35.4314 12.5783 35.4314C16.4398 35.4314 19.632 33.8158 21.6899 31.267V31.2637L21.6933 31.262C21.8506 31.0513 21.9426 30.8372 21.9426 30.6214C21.9426 30.404 21.8455 30.2017 21.6782 30.0361L19.5015 27.9572L19.5032 27.9555Z" fill="black" fill-opacity="0.2"/>
<path d="M19.5032 27.9555C19.3041 27.7565 19.0649 27.6595 18.8306 27.6595C18.5429 27.6595 18.2768 27.7967 18.0677 28.0057H18.066C17.4001 28.6981 16.679 29.2634 15.8325 29.6581C14.9859 30.0528 14.0088 30.2769 12.8209 30.2769C10.589 30.2769 8.72684 29.4725 7.41848 28.1412C6.11013 26.8082 5.35222 24.9451 5.35222 22.8111C5.35222 20.677 6.11013 18.8373 7.40677 17.5294C8.70342 16.2216 10.5421 15.4422 12.7255 15.4405C13.9368 15.4405 14.9256 15.6646 15.7856 16.0593C16.6456 16.454 17.3784 17.0193 18.0694 17.7101C18.2534 17.9208 18.5111 18.0563 18.7888 18.0563C19.0197 18.0563 19.2573 17.9593 19.4564 17.7602L21.6314 15.683C21.7987 15.5158 21.8974 15.3134 21.8957 15.096C21.8957 14.8786 21.8037 14.6662 21.6464 14.4555L21.6448 14.4504C19.5852 11.9016 16.3946 10.2843 12.4846 10.286C8.91757 10.286 5.79391 11.6307 3.56536 13.8718C1.33345 16.1095 0 19.2437 0 22.8094C0 26.4002 1.34516 29.5578 3.59213 31.8156C5.83909 34.0734 8.98617 35.4314 12.5783 35.4314C16.4398 35.4314 19.632 33.8158 21.6899 31.267V31.2637L21.6933 31.262C21.8506 31.0513 21.9426 30.8372 21.9426 30.6214C21.9426 30.404 21.8455 30.2017 21.6782 30.0361L19.5015 27.9572L19.5032 27.9555Z" fill="black" fill-opacity="0.2"/>
<path d="M45.3322 10.864H41.5159C41.2633 10.864 41.0408 10.9526 40.8935 11.1165C40.7446 11.2804 40.676 11.5045 40.676 11.7504V24.5949C40.676 26.4195 40.0971 27.8327 39.1301 28.7944C38.1614 29.7561 36.7945 30.2729 35.1866 30.2745C34.3701 30.2745 33.6524 30.1441 33.0333 29.8966C32.1065 29.5236 31.4004 28.8881 30.9169 28C30.435 27.1119 30.1807 25.9696 30.1807 24.5949V11.7504C30.1807 11.5045 30.1121 11.2804 29.9632 11.1165C29.816 10.9526 29.5935 10.8623 29.3408 10.864H25.476C25.2234 10.864 25.0008 10.9526 24.8536 11.1165C24.7047 11.2804 24.6361 11.5045 24.6361 11.7504V25.5615C24.6361 28.7058 25.5279 31.176 27.0705 32.8602C28.613 34.5443 30.8014 35.4307 33.3496 35.4307C35.2368 35.4307 36.8028 34.9641 38.066 34.1881C39.1686 33.5107 40.0402 32.5993 40.7011 31.5623L40.8199 33.9255V33.9289C40.8333 34.0827 40.855 34.2148 40.8935 34.3302C40.9487 34.5042 41.0491 34.648 41.1947 34.735C41.3402 34.8219 41.5109 34.8504 41.7083 34.8504H45.3322C45.5849 34.8504 45.8124 34.7634 45.973 34.6029C46.1336 34.4423 46.2206 34.2148 46.2206 33.9623V11.7504C46.2206 11.4978 46.1336 11.2704 45.973 11.1098C45.8124 10.9493 45.5849 10.8623 45.3322 10.8623V10.864Z" fill="#121212"/>
<path d="M45.3322 10.864H41.5159C41.2633 10.864 41.0408 10.9526 40.8935 11.1165C40.7446 11.2804 40.676 11.5045 40.676 11.7504V24.5949C40.676 26.4195 40.0971 27.8327 39.1301 28.7944C38.1614 29.7561 36.7945 30.2729 35.1866 30.2745C34.3701 30.2745 33.6524 30.1441 33.0333 29.8966C32.1065 29.5236 31.4004 28.8881 30.9169 28C30.435 27.1119 30.1807 25.9696 30.1807 24.5949V11.7504C30.1807 11.5045 30.1121 11.2804 29.9632 11.1165C29.816 10.9526 29.5935 10.8623 29.3408 10.864H25.476C25.2234 10.864 25.0008 10.9526 24.8536 11.1165C24.7047 11.2804 24.6361 11.5045 24.6361 11.7504V25.5615C24.6361 28.7058 25.5279 31.176 27.0705 32.8602C28.613 34.5443 30.8014 35.4307 33.3496 35.4307C35.2368 35.4307 36.8028 34.9641 38.066 34.1881C39.1686 33.5107 40.0402 32.5993 40.7011 31.5623L40.8199 33.9255V33.9289C40.8333 34.0827 40.855 34.2148 40.8935 34.3302C40.9487 34.5042 41.0491 34.648 41.1947 34.735C41.3402 34.8219 41.5109 34.8504 41.7083 34.8504H45.3322C45.5849 34.8504 45.8124 34.7634 45.973 34.6029C46.1336 34.4423 46.2206 34.2148 46.2206 33.9623V11.7504C46.2206 11.4978 46.1336 11.2704 45.973 11.1098C45.8124 10.9493 45.5849 10.8623 45.3322 10.8623V10.864Z" fill="black" fill-opacity="0.2"/>
<path d="M45.3322 10.864H41.5159C41.2633 10.864 41.0408 10.9526 40.8935 11.1165C40.7446 11.2804 40.676 11.5045 40.676 11.7504V24.5949C40.676 26.4195 40.0971 27.8327 39.1301 28.7944C38.1614 29.7561 36.7945 30.2729 35.1866 30.2745C34.3701 30.2745 33.6524 30.1441 33.0333 29.8966C32.1065 29.5236 31.4004 28.8881 30.9169 28C30.435 27.1119 30.1807 25.9696 30.1807 24.5949V11.7504C30.1807 11.5045 30.1121 11.2804 29.9632 11.1165C29.816 10.9526 29.5935 10.8623 29.3408 10.864H25.476C25.2234 10.864 25.0008 10.9526 24.8536 11.1165C24.7047 11.2804 24.6361 11.5045 24.6361 11.7504V25.5615C24.6361 28.7058 25.5279 31.176 27.0705 32.8602C28.613 34.5443 30.8014 35.4307 33.3496 35.4307C35.2368 35.4307 36.8028 34.9641 38.066 34.1881C39.1686 33.5107 40.0402 32.5993 40.7011 31.5623L40.8199 33.9255V33.9289C40.8333 34.0827 40.855 34.2148 40.8935 34.3302C40.9487 34.5042 41.0491 34.648 41.1947 34.735C41.3402 34.8219 41.5109 34.8504 41.7083 34.8504H45.3322C45.5849 34.8504 45.8124 34.7634 45.973 34.6029C46.1336 34.4423 46.2206 34.2148 46.2206 33.9623V11.7504C46.2206 11.4978 46.1336 11.2704 45.973 11.1098C45.8124 10.9493 45.5849 10.8623 45.3322 10.8623V10.864Z" fill="black" fill-opacity="0.2"/>
<path d="M45.3322 10.864H41.5159C41.2633 10.864 41.0408 10.9526 40.8935 11.1165C40.7446 11.2804 40.676 11.5045 40.676 11.7504V24.5949C40.676 26.4195 40.0971 27.8327 39.1301 28.7944C38.1614 29.7561 36.7945 30.2729 35.1866 30.2745C34.3701 30.2745 33.6524 30.1441 33.0333 29.8966C32.1065 29.5236 31.4004 28.8881 30.9169 28C30.435 27.1119 30.1807 25.9696 30.1807 24.5949V11.7504C30.1807 11.5045 30.1121 11.2804 29.9632 11.1165C29.816 10.9526 29.5935 10.8623 29.3408 10.864H25.476C25.2234 10.864 25.0008 10.9526 24.8536 11.1165C24.7047 11.2804 24.6361 11.5045 24.6361 11.7504V25.5615C24.6361 28.7058 25.5279 31.176 27.0705 32.8602C28.613 34.5443 30.8014 35.4307 33.3496 35.4307C35.2368 35.4307 36.8028 34.9641 38.066 34.1881C39.1686 33.5107 40.0402 32.5993 40.7011 31.5623L40.8199 33.9255V33.9289C40.8333 34.0827 40.855 34.2148 40.8935 34.3302C40.9487 34.5042 41.0491 34.648 41.1947 34.735C41.3402 34.8219 41.5109 34.8504 41.7083 34.8504H45.3322C45.5849 34.8504 45.8124 34.7634 45.973 34.6029C46.1336 34.4423 46.2206 34.2148 46.2206 33.9623V11.7504C46.2206 11.4978 46.1336 11.2704 45.973 11.1098C45.8124 10.9493 45.5849 10.8623 45.3322 10.8623V10.864Z" fill="black" fill-opacity="0.2"/>
<path d="M45.3322 10.864H41.5159C41.2633 10.864 41.0408 10.9526 40.8935 11.1165C40.7446 11.2804 40.676 11.5045 40.676 11.7504V24.5949C40.676 26.4195 40.0971 27.8327 39.1301 28.7944C38.1614 29.7561 36.7945 30.2729 35.1866 30.2745C34.3701 30.2745 33.6524 30.1441 33.0333 29.8966C32.1065 29.5236 31.4004 28.8881 30.9169 28C30.435 27.1119 30.1807 25.9696 30.1807 24.5949V11.7504C30.1807 11.5045 30.1121 11.2804 29.9632 11.1165C29.816 10.9526 29.5935 10.8623 29.3408 10.864H25.476C25.2234 10.864 25.0008 10.9526 24.8536 11.1165C24.7047 11.2804 24.6361 11.5045 24.6361 11.7504V25.5615C24.6361 28.7058 25.5279 31.176 27.0705 32.8602C28.613 34.5443 30.8014 35.4307 33.3496 35.4307C35.2368 35.4307 36.8028 34.9641 38.066 34.1881C39.1686 33.5107 40.0402 32.5993 40.7011 31.5623L40.8199 33.9255V33.9289C40.8333 34.0827 40.855 34.2148 40.8935 34.3302C40.9487 34.5042 41.0491 34.648 41.1947 34.735C41.3402 34.8219 41.5109 34.8504 41.7083 34.8504H45.3322C45.5849 34.8504 45.8124 34.7634 45.973 34.6029C46.1336 34.4423 46.2206 34.2148 46.2206 33.9623V11.7504C46.2206 11.4978 46.1336 11.2704 45.973 11.1098C45.8124 10.9493 45.5849 10.8623 45.3322 10.8623V10.864Z" fill="black" fill-opacity="0.2"/>
<path d="M62.9167 10.848C62.9167 10.848 62.9167 10.848 62.9151 10.848C62.4851 10.5285 61.7322 10.2877 60.6463 10.286C59.1857 10.286 58.0413 10.761 57.163 11.5404C56.4536 12.1692 55.9199 12.9904 55.5066 13.9136L55.3995 11.7929C55.3995 11.6407 55.3828 11.5069 55.3493 11.3898C55.2975 11.2109 55.1937 11.067 55.0515 10.9818C54.9093 10.8948 54.742 10.8664 54.5613 10.8664H50.8906C50.6379 10.8664 50.4154 10.955 50.2682 11.1189C50.1193 11.2828 50.0507 11.5069 50.0507 11.7528V33.9664C50.0507 34.2122 50.1193 34.4363 50.2682 34.6002C50.4154 34.7641 50.6379 34.8544 50.8906 34.8528H54.7554C55.008 34.8528 55.2305 34.7641 55.3778 34.6002C55.5267 34.4363 55.5953 34.2122 55.5953 33.9664V21.2172C55.5953 19.722 55.9533 18.2703 56.7531 17.205C57.1529 16.6715 57.6615 16.2333 58.2956 15.9255C58.9298 15.6178 59.6927 15.4422 60.6012 15.4422C61.2219 15.4422 61.7305 15.489 62.2893 15.6747H62.296L62.3027 15.678C62.4516 15.7148 62.5888 15.7349 62.7176 15.7366C62.818 15.7366 62.9134 15.7232 63.0021 15.6931C63.1342 15.6479 63.2497 15.5576 63.3216 15.4338C63.3936 15.3101 63.4237 15.1612 63.4237 14.9906V11.8999C63.4237 11.6708 63.3986 11.4768 63.3183 11.3012C63.238 11.1256 63.1058 10.9818 62.9234 10.853L62.9167 10.848Z" fill="#121212"/>
<path d="M62.9167 10.848C62.9167 10.848 62.9167 10.848 62.9151 10.848C62.4851 10.5285 61.7322 10.2877 60.6463 10.286C59.1857 10.286 58.0413 10.761 57.163 11.5404C56.4536 12.1692 55.9199 12.9904 55.5066 13.9136L55.3995 11.7929C55.3995 11.6407 55.3828 11.5069 55.3493 11.3898C55.2975 11.2109 55.1937 11.067 55.0515 10.9818C54.9093 10.8948 54.742 10.8664 54.5613 10.8664H50.8906C50.6379 10.8664 50.4154 10.955 50.2682 11.1189C50.1193 11.2828 50.0507 11.5069 50.0507 11.7528V33.9664C50.0507 34.2122 50.1193 34.4363 50.2682 34.6002C50.4154 34.7641 50.6379 34.8544 50.8906 34.8528H54.7554C55.008 34.8528 55.2305 34.7641 55.3778 34.6002C55.5267 34.4363 55.5953 34.2122 55.5953 33.9664V21.2172C55.5953 19.722 55.9533 18.2703 56.7531 17.205C57.1529 16.6715 57.6615 16.2333 58.2956 15.9255C58.9298 15.6178 59.6927 15.4422 60.6012 15.4422C61.2219 15.4422 61.7305 15.489 62.2893 15.6747H62.296L62.3027 15.678C62.4516 15.7148 62.5888 15.7349 62.7176 15.7366C62.818 15.7366 62.9134 15.7232 63.0021 15.6931C63.1342 15.6479 63.2497 15.5576 63.3216 15.4338C63.3936 15.3101 63.4237 15.1612 63.4237 14.9906V11.8999C63.4237 11.6708 63.3986 11.4768 63.3183 11.3012C63.238 11.1256 63.1058 10.9818 62.9234 10.853L62.9167 10.848Z" fill="black" fill-opacity="0.2"/>
<path d="M62.9167 10.848C62.9167 10.848 62.9167 10.848 62.9151 10.848C62.4851 10.5285 61.7322 10.2877 60.6463 10.286C59.1857 10.286 58.0413 10.761 57.163 11.5404C56.4536 12.1692 55.9199 12.9904 55.5066 13.9136L55.3995 11.7929C55.3995 11.6407 55.3828 11.5069 55.3493 11.3898C55.2975 11.2109 55.1937 11.067 55.0515 10.9818C54.9093 10.8948 54.742 10.8664 54.5613 10.8664H50.8906C50.6379 10.8664 50.4154 10.955 50.2682 11.1189C50.1193 11.2828 50.0507 11.5069 50.0507 11.7528V33.9664C50.0507 34.2122 50.1193 34.4363 50.2682 34.6002C50.4154 34.7641 50.6379 34.8544 50.8906 34.8528H54.7554C55.008 34.8528 55.2305 34.7641 55.3778 34.6002C55.5267 34.4363 55.5953 34.2122 55.5953 33.9664V21.2172C55.5953 19.722 55.9533 18.2703 56.7531 17.205C57.1529 16.6715 57.6615 16.2333 58.2956 15.9255C58.9298 15.6178 59.6927 15.4422 60.6012 15.4422C61.2219 15.4422 61.7305 15.489 62.2893 15.6747H62.296L62.3027 15.678C62.4516 15.7148 62.5888 15.7349 62.7176 15.7366C62.818 15.7366 62.9134 15.7232 63.0021 15.6931C63.1342 15.6479 63.2497 15.5576 63.3216 15.4338C63.3936 15.3101 63.4237 15.1612 63.4237 14.9906V11.8999C63.4237 11.6708 63.3986 11.4768 63.3183 11.3012C63.238 11.1256 63.1058 10.9818 62.9234 10.853L62.9167 10.848Z" fill="black" fill-opacity="0.2"/>
<path d="M62.9167 10.848C62.9167 10.848 62.9167 10.848 62.9151 10.848C62.4851 10.5285 61.7322 10.2877 60.6463 10.286C59.1857 10.286 58.0413 10.761 57.163 11.5404C56.4536 12.1692 55.9199 12.9904 55.5066 13.9136L55.3995 11.7929C55.3995 11.6407 55.3828 11.5069 55.3493 11.3898C55.2975 11.2109 55.1937 11.067 55.0515 10.9818C54.9093 10.8948 54.742 10.8664 54.5613 10.8664H50.8906C50.6379 10.8664 50.4154 10.955 50.2682 11.1189C50.1193 11.2828 50.0507 11.5069 50.0507 11.7528V33.9664C50.0507 34.2122 50.1193 34.4363 50.2682 34.6002C50.4154 34.7641 50.6379 34.8544 50.8906 34.8528H54.7554C55.008 34.8528 55.2305 34.7641 55.3778 34.6002C55.5267 34.4363 55.5953 34.2122 55.5953 33.9664V21.2172C55.5953 19.722 55.9533 18.2703 56.7531 17.205C57.1529 16.6715 57.6615 16.2333 58.2956 15.9255C58.9298 15.6178 59.6927 15.4422 60.6012 15.4422C61.2219 15.4422 61.7305 15.489 62.2893 15.6747H62.296L62.3027 15.678C62.4516 15.7148 62.5888 15.7349 62.7176 15.7366C62.818 15.7366 62.9134 15.7232 63.0021 15.6931C63.1342 15.6479 63.2497 15.5576 63.3216 15.4338C63.3936 15.3101 63.4237 15.1612 63.4237 14.9906V11.8999C63.4237 11.6708 63.3986 11.4768 63.3183 11.3012C63.238 11.1256 63.1058 10.9818 62.9234 10.853L62.9167 10.848Z" fill="black" fill-opacity="0.2"/>
<path d="M62.9167 10.848C62.9167 10.848 62.9167 10.848 62.9151 10.848C62.4851 10.5285 61.7322 10.2877 60.6463 10.286C59.1857 10.286 58.0413 10.761 57.163 11.5404C56.4536 12.1692 55.9199 12.9904 55.5066 13.9136L55.3995 11.7929C55.3995 11.6407 55.3828 11.5069 55.3493 11.3898C55.2975 11.2109 55.1937 11.067 55.0515 10.9818C54.9093 10.8948 54.742 10.8664 54.5613 10.8664H50.8906C50.6379 10.8664 50.4154 10.955 50.2682 11.1189C50.1193 11.2828 50.0507 11.5069 50.0507 11.7528V33.9664C50.0507 34.2122 50.1193 34.4363 50.2682 34.6002C50.4154 34.7641 50.6379 34.8544 50.8906 34.8528H54.7554C55.008 34.8528 55.2305 34.7641 55.3778 34.6002C55.5267 34.4363 55.5953 34.2122 55.5953 33.9664V21.2172C55.5953 19.722 55.9533 18.2703 56.7531 17.205C57.1529 16.6715 57.6615 16.2333 58.2956 15.9255C58.9298 15.6178 59.6927 15.4422 60.6012 15.4422C61.2219 15.4422 61.7305 15.489 62.2893 15.6747H62.296L62.3027 15.678C62.4516 15.7148 62.5888 15.7349 62.7176 15.7366C62.818 15.7366 62.9134 15.7232 63.0021 15.6931C63.1342 15.6479 63.2497 15.5576 63.3216 15.4338C63.3936 15.3101 63.4237 15.1612 63.4237 14.9906V11.8999C63.4237 11.6708 63.3986 11.4768 63.3183 11.3012C63.238 11.1256 63.1058 10.9818 62.9234 10.853L62.9167 10.848Z" fill="black" fill-opacity="0.2"/>
<path d="M79.2908 10.284C77.432 10.284 75.799 10.6753 74.4154 11.3945C73.1857 12.0334 72.1567 12.9315 71.3386 14.037V0.886426C71.3386 0.640575 71.27 0.416465 71.1211 0.252564C70.9738 0.0886631 70.7513 -0.00164964 70.4987 2.28201e-05H66.6338C66.3812 2.28201e-05 66.1587 0.0886631 66.0114 0.252564C65.8625 0.416465 65.7939 0.640575 65.7939 0.886426V33.966C65.7939 34.2118 65.8625 34.4359 66.0114 34.5998C66.1587 34.7637 66.3812 34.8541 66.6338 34.8524H70.1607C70.4133 34.8524 70.6359 34.7637 70.7831 34.5998C70.9303 34.4376 70.9989 34.2152 71.0006 33.971L71.0809 31.3486C71.9024 32.5461 72.9497 33.5261 74.2196 34.2235C75.6401 35.0046 77.3366 35.4327 79.2924 35.4327C82.7173 35.4327 85.6167 34.073 87.6495 31.8169C89.684 29.5624 90.8552 26.4199 90.8552 22.8592C90.8552 19.3219 89.684 16.1794 87.6495 13.9199C85.615 11.6587 82.7173 10.2856 79.2908 10.2856V10.284ZM78.2752 15.3917C80.3615 15.3917 82.1517 16.1476 83.4233 17.4555C84.6948 18.7633 85.4544 20.6265 85.4544 22.8592C85.4544 25.117 84.6948 26.9785 83.4233 28.2813C82.1501 29.5825 80.3615 30.3267 78.2735 30.3267C76.2106 30.3267 74.4706 29.5825 73.2409 28.2897C72.0112 26.9952 71.2867 25.1438 71.2867 22.9094C71.2867 20.6499 72.0112 18.7734 73.2409 17.4622C74.4723 16.151 76.2106 15.395 78.2735 15.395L78.2752 15.3917Z" fill="#121212"/>
<path d="M79.2908 10.284C77.432 10.284 75.799 10.6753 74.4154 11.3945C73.1857 12.0334 72.1567 12.9315 71.3386 14.037V0.886426C71.3386 0.640575 71.27 0.416465 71.1211 0.252564C70.9738 0.0886631 70.7513 -0.00164964 70.4987 2.28201e-05H66.6338C66.3812 2.28201e-05 66.1587 0.0886631 66.0114 0.252564C65.8625 0.416465 65.7939 0.640575 65.7939 0.886426V33.966C65.7939 34.2118 65.8625 34.4359 66.0114 34.5998C66.1587 34.7637 66.3812 34.8541 66.6338 34.8524H70.1607C70.4133 34.8524 70.6359 34.7637 70.7831 34.5998C70.9303 34.4376 70.9989 34.2152 71.0006 33.971L71.0809 31.3486C71.9024 32.5461 72.9497 33.5261 74.2196 34.2235C75.6401 35.0046 77.3366 35.4327 79.2924 35.4327C82.7173 35.4327 85.6167 34.073 87.6495 31.8169C89.684 29.5624 90.8552 26.4199 90.8552 22.8592C90.8552 19.3219 89.684 16.1794 87.6495 13.9199C85.615 11.6587 82.7173 10.2856 79.2908 10.2856V10.284ZM78.2752 15.3917C80.3615 15.3917 82.1517 16.1476 83.4233 17.4555C84.6948 18.7633 85.4544 20.6265 85.4544 22.8592C85.4544 25.117 84.6948 26.9785 83.4233 28.2813C82.1501 29.5825 80.3615 30.3267 78.2735 30.3267C76.2106 30.3267 74.4706 29.5825 73.2409 28.2897C72.0112 26.9952 71.2867 25.1438 71.2867 22.9094C71.2867 20.6499 72.0112 18.7734 73.2409 17.4622C74.4723 16.151 76.2106 15.395 78.2735 15.395L78.2752 15.3917Z" fill="black" fill-opacity="0.2"/>
<path d="M79.2908 10.284C77.432 10.284 75.799 10.6753 74.4154 11.3945C73.1857 12.0334 72.1567 12.9315 71.3386 14.037V0.886426C71.3386 0.640575 71.27 0.416465 71.1211 0.252564C70.9738 0.0886631 70.7513 -0.00164964 70.4987 2.28201e-05H66.6338C66.3812 2.28201e-05 66.1587 0.0886631 66.0114 0.252564C65.8625 0.416465 65.7939 0.640575 65.7939 0.886426V33.966C65.7939 34.2118 65.8625 34.4359 66.0114 34.5998C66.1587 34.7637 66.3812 34.8541 66.6338 34.8524H70.1607C70.4133 34.8524 70.6359 34.7637 70.7831 34.5998C70.9303 34.4376 70.9989 34.2152 71.0006 33.971L71.0809 31.3486C71.9024 32.5461 72.9497 33.5261 74.2196 34.2235C75.6401 35.0046 77.3366 35.4327 79.2924 35.4327C82.7173 35.4327 85.6167 34.073 87.6495 31.8169C89.684 29.5624 90.8552 26.4199 90.8552 22.8592C90.8552 19.3219 89.684 16.1794 87.6495 13.9199C85.615 11.6587 82.7173 10.2856 79.2908 10.2856V10.284ZM78.2752 15.3917C80.3615 15.3917 82.1517 16.1476 83.4233 17.4555C84.6948 18.7633 85.4544 20.6265 85.4544 22.8592C85.4544 25.117 84.6948 26.9785 83.4233 28.2813C82.1501 29.5825 80.3615 30.3267 78.2735 30.3267C76.2106 30.3267 74.4706 29.5825 73.2409 28.2897C72.0112 26.9952 71.2867 25.1438 71.2867 22.9094C71.2867 20.6499 72.0112 18.7734 73.2409 17.4622C74.4723 16.151 76.2106 15.395 78.2735 15.395L78.2752 15.3917Z" fill="black" fill-opacity="0.2"/>
<path d="M79.2908 10.284C77.432 10.284 75.799 10.6753 74.4154 11.3945C73.1857 12.0334 72.1567 12.9315 71.3386 14.037V0.886426C71.3386 0.640575 71.27 0.416465 71.1211 0.252564C70.9738 0.0886631 70.7513 -0.00164964 70.4987 2.28201e-05H66.6338C66.3812 2.28201e-05 66.1587 0.0886631 66.0114 0.252564C65.8625 0.416465 65.7939 0.640575 65.7939 0.886426V33.966C65.7939 34.2118 65.8625 34.4359 66.0114 34.5998C66.1587 34.7637 66.3812 34.8541 66.6338 34.8524H70.1607C70.4133 34.8524 70.6359 34.7637 70.7831 34.5998C70.9303 34.4376 70.9989 34.2152 71.0006 33.971L71.0809 31.3486C71.9024 32.5461 72.9497 33.5261 74.2196 34.2235C75.6401 35.0046 77.3366 35.4327 79.2924 35.4327C82.7173 35.4327 85.6167 34.073 87.6495 31.8169C89.684 29.5624 90.8552 26.4199 90.8552 22.8592C90.8552 19.3219 89.684 16.1794 87.6495 13.9199C85.615 11.6587 82.7173 10.2856 79.2908 10.2856V10.284ZM78.2752 15.3917C80.3615 15.3917 82.1517 16.1476 83.4233 17.4555C84.6948 18.7633 85.4544 20.6265 85.4544 22.8592C85.4544 25.117 84.6948 26.9785 83.4233 28.2813C82.1501 29.5825 80.3615 30.3267 78.2735 30.3267C76.2106 30.3267 74.4706 29.5825 73.2409 28.2897C72.0112 26.9952 71.2867 25.1438 71.2867 22.9094C71.2867 20.6499 72.0112 18.7734 73.2409 17.4622C74.4723 16.151 76.2106 15.395 78.2735 15.395L78.2752 15.3917Z" fill="black" fill-opacity="0.2"/>
<path d="M79.2908 10.284C77.432 10.284 75.799 10.6753 74.4154 11.3945C73.1857 12.0334 72.1567 12.9315 71.3386 14.037V0.886426C71.3386 0.640575 71.27 0.416465 71.1211 0.252564C70.9738 0.0886631 70.7513 -0.00164964 70.4987 2.28201e-05H66.6338C66.3812 2.28201e-05 66.1587 0.0886631 66.0114 0.252564C65.8625 0.416465 65.7939 0.640575 65.7939 0.886426V33.966C65.7939 34.2118 65.8625 34.4359 66.0114 34.5998C66.1587 34.7637 66.3812 34.8541 66.6338 34.8524H70.1607C70.4133 34.8524 70.6359 34.7637 70.7831 34.5998C70.9303 34.4376 70.9989 34.2152 71.0006 33.971L71.0809 31.3486C71.9024 32.5461 72.9497 33.5261 74.2196 34.2235C75.6401 35.0046 77.3366 35.4327 79.2924 35.4327C82.7173 35.4327 85.6167 34.073 87.6495 31.8169C89.684 29.5624 90.8552 26.4199 90.8552 22.8592C90.8552 19.3219 89.684 16.1794 87.6495 13.9199C85.615 11.6587 82.7173 10.2856 79.2908 10.2856V10.284ZM78.2752 15.3917C80.3615 15.3917 82.1517 16.1476 83.4233 17.4555C84.6948 18.7633 85.4544 20.6265 85.4544 22.8592C85.4544 25.117 84.6948 26.9785 83.4233 28.2813C82.1501 29.5825 80.3615 30.3267 78.2735 30.3267C76.2106 30.3267 74.4706 29.5825 73.2409 28.2897C72.0112 26.9952 71.2867 25.1438 71.2867 22.9094C71.2867 20.6499 72.0112 18.7734 73.2409 17.4622C74.4723 16.151 76.2106 15.395 78.2735 15.395L78.2752 15.3917Z" fill="black" fill-opacity="0.2"/>
<path d="M115.877 21.6979C115.877 18.7142 114.838 15.861 112.894 13.752C110.95 11.6414 108.099 10.2817 104.507 10.2833C100.868 10.2833 97.8126 11.6414 95.6744 13.8825C93.5362 16.1236 92.3131 19.246 92.3148 22.7599C92.3148 26.3239 93.5864 29.4949 95.84 31.7727C98.0937 34.0506 101.328 35.4321 105.231 35.4304C108.594 35.4304 111.683 34.457 113.799 32.3899C113.921 32.2661 114.021 32.1491 114.093 32.0253C114.165 31.9032 114.209 31.7711 114.209 31.6339C114.209 31.4533 114.135 31.281 114.008 31.1121L112.656 29.2774C112.588 29.1771 112.506 29.0951 112.412 29.0383C112.315 28.9797 112.206 28.9496 112.094 28.9496C111.945 28.9496 111.798 29.0015 111.662 29.0935C109.8 30.3328 107.958 30.8997 105.666 30.9014C103.352 30.9014 101.52 30.2826 100.188 29.2105C98.9035 28.1753 98.0803 26.7136 97.7457 24.9491H113.491C113.953 24.9491 114.338 24.8839 114.657 24.7451C114.897 24.6414 115.099 24.4942 115.26 24.3069C115.502 24.0276 115.656 23.6647 115.748 23.2315C115.84 22.7967 115.875 22.2866 115.875 21.6962L115.877 21.6979ZM99.9157 16.5885C101.104 15.5599 102.68 15.0047 104.507 15.0047C106.334 15.0047 107.859 15.5716 108.967 16.6035C110.04 17.6037 110.726 19.0453 110.898 20.86H97.6921C97.9799 19.0253 98.7663 17.5836 99.9157 16.5885Z" fill="#121212"/>
<path d="M115.877 21.6979C115.877 18.7142 114.838 15.861 112.894 13.752C110.95 11.6414 108.099 10.2817 104.507 10.2833C100.868 10.2833 97.8126 11.6414 95.6744 13.8825C93.5362 16.1236 92.3131 19.246 92.3148 22.7599C92.3148 26.3239 93.5864 29.4949 95.84 31.7727C98.0937 34.0506 101.328 35.4321 105.231 35.4304C108.594 35.4304 111.683 34.457 113.799 32.3899C113.921 32.2661 114.021 32.1491 114.093 32.0253C114.165 31.9032 114.209 31.7711 114.209 31.6339C114.209 31.4533 114.135 31.281 114.008 31.1121L112.656 29.2774C112.588 29.1771 112.506 29.0951 112.412 29.0383C112.315 28.9797 112.206 28.9496 112.094 28.9496C111.945 28.9496 111.798 29.0015 111.662 29.0935C109.8 30.3328 107.958 30.8997 105.666 30.9014C103.352 30.9014 101.52 30.2826 100.188 29.2105C98.9035 28.1753 98.0803 26.7136 97.7457 24.9491H113.491C113.953 24.9491 114.338 24.8839 114.657 24.7451C114.897 24.6414 115.099 24.4942 115.26 24.3069C115.502 24.0276 115.656 23.6647 115.748 23.2315C115.84 22.7967 115.875 22.2866 115.875 21.6962L115.877 21.6979ZM99.9157 16.5885C101.104 15.5599 102.68 15.0047 104.507 15.0047C106.334 15.0047 107.859 15.5716 108.967 16.6035C110.04 17.6037 110.726 19.0453 110.898 20.86H97.6921C97.9799 19.0253 98.7663 17.5836 99.9157 16.5885Z" fill="black" fill-opacity="0.2"/>
<path d="M115.877 21.6979C115.877 18.7142 114.838 15.861 112.894 13.752C110.95 11.6414 108.099 10.2817 104.507 10.2833C100.868 10.2833 97.8126 11.6414 95.6744 13.8825C93.5362 16.1236 92.3131 19.246 92.3148 22.7599C92.3148 26.3239 93.5864 29.4949 95.84 31.7727C98.0937 34.0506 101.328 35.4321 105.231 35.4304C108.594 35.4304 111.683 34.457 113.799 32.3899C113.921 32.2661 114.021 32.1491 114.093 32.0253C114.165 31.9032 114.209 31.7711 114.209 31.6339C114.209 31.4533 114.135 31.281 114.008 31.1121L112.656 29.2774C112.588 29.1771 112.506 29.0951 112.412 29.0383C112.315 28.9797 112.206 28.9496 112.094 28.9496C111.945 28.9496 111.798 29.0015 111.662 29.0935C109.8 30.3328 107.958 30.8997 105.666 30.9014C103.352 30.9014 101.52 30.2826 100.188 29.2105C98.9035 28.1753 98.0803 26.7136 97.7457 24.9491H113.491C113.953 24.9491 114.338 24.8839 114.657 24.7451C114.897 24.6414 115.099 24.4942 115.26 24.3069C115.502 24.0276 115.656 23.6647 115.748 23.2315C115.84 22.7967 115.875 22.2866 115.875 21.6962L115.877 21.6979ZM99.9157 16.5885C101.104 15.5599 102.68 15.0047 104.507 15.0047C106.334 15.0047 107.859 15.5716 108.967 16.6035C110.04 17.6037 110.726 19.0453 110.898 20.86H97.6921C97.9799 19.0253 98.7663 17.5836 99.9157 16.5885Z" fill="black" fill-opacity="0.2"/>
<path d="M115.877 21.6979C115.877 18.7142 114.838 15.861 112.894 13.752C110.95 11.6414 108.099 10.2817 104.507 10.2833C100.868 10.2833 97.8126 11.6414 95.6744 13.8825C93.5362 16.1236 92.3131 19.246 92.3148 22.7599C92.3148 26.3239 93.5864 29.4949 95.84 31.7727C98.0937 34.0506 101.328 35.4321 105.231 35.4304C108.594 35.4304 111.683 34.457 113.799 32.3899C113.921 32.2661 114.021 32.1491 114.093 32.0253C114.165 31.9032 114.209 31.7711 114.209 31.6339C114.209 31.4533 114.135 31.281 114.008 31.1121L112.656 29.2774C112.588 29.1771 112.506 29.0951 112.412 29.0383C112.315 28.9797 112.206 28.9496 112.094 28.9496C111.945 28.9496 111.798 29.0015 111.662 29.0935C109.8 30.3328 107.958 30.8997 105.666 30.9014C103.352 30.9014 101.52 30.2826 100.188 29.2105C98.9035 28.1753 98.0803 26.7136 97.7457 24.9491H113.491C113.953 24.9491 114.338 24.8839 114.657 24.7451C114.897 24.6414 115.099 24.4942 115.26 24.3069C115.502 24.0276 115.656 23.6647 115.748 23.2315C115.84 22.7967 115.875 22.2866 115.875 21.6962L115.877 21.6979ZM99.9157 16.5885C101.104 15.5599 102.68 15.0047 104.507 15.0047C106.334 15.0047 107.859 15.5716 108.967 16.6035C110.04 17.6037 110.726 19.0453 110.898 20.86H97.6921C97.9799 19.0253 98.7663 17.5836 99.9157 16.5885Z" fill="black" fill-opacity="0.2"/>
<path d="M115.877 21.6979C115.877 18.7142 114.838 15.861 112.894 13.752C110.95 11.6414 108.099 10.2817 104.507 10.2833C100.868 10.2833 97.8126 11.6414 95.6744 13.8825C93.5362 16.1236 92.3131 19.246 92.3148 22.7599C92.3148 26.3239 93.5864 29.4949 95.84 31.7727C98.0937 34.0506 101.328 35.4321 105.231 35.4304C108.594 35.4304 111.683 34.457 113.799 32.3899C113.921 32.2661 114.021 32.1491 114.093 32.0253C114.165 31.9032 114.209 31.7711 114.209 31.6339C114.209 31.4533 114.135 31.281 114.008 31.1121L112.656 29.2774C112.588 29.1771 112.506 29.0951 112.412 29.0383C112.315 28.9797 112.206 28.9496 112.094 28.9496C111.945 28.9496 111.798 29.0015 111.662 29.0935C109.8 30.3328 107.958 30.8997 105.666 30.9014C103.352 30.9014 101.52 30.2826 100.188 29.2105C98.9035 28.1753 98.0803 26.7136 97.7457 24.9491H113.491C113.953 24.9491 114.338 24.8839 114.657 24.7451C114.897 24.6414 115.099 24.4942 115.26 24.3069C115.502 24.0276 115.656 23.6647 115.748 23.2315C115.84 22.7967 115.875 22.2866 115.875 21.6962L115.877 21.6979ZM99.9157 16.5885C101.104 15.5599 102.68 15.0047 104.507 15.0047C106.334 15.0047 107.859 15.5716 108.967 16.6035C110.04 17.6037 110.726 19.0453 110.898 20.86H97.6921C97.9799 19.0253 98.7663 17.5836 99.9157 16.5885Z" fill="black" fill-opacity="0.2"/>
<path d="M136.912 33.7323L129.723 22.5687L136.574 11.9853C136.698 11.8064 136.767 11.6291 136.767 11.4568C136.767 11.3699 136.748 11.2846 136.71 11.2076C136.653 11.0922 136.553 11.0036 136.43 10.9467C136.308 10.8899 136.164 10.8631 136.002 10.8631H131.799C131.587 10.8631 131.388 10.9033 131.214 10.9969C131.041 11.0906 130.899 11.2344 130.79 11.4234L126.387 18.5865L121.936 11.4217C121.831 11.2394 121.704 11.0939 121.543 10.9986C121.381 10.9016 121.19 10.8615 120.978 10.8615H116.726C116.519 10.8615 116.337 10.9133 116.203 11.022C116.067 11.1307 115.994 11.2996 115.995 11.4752C115.995 11.6375 116.05 11.8064 116.153 11.977V11.9803L123.054 22.5653L115.865 33.729C115.741 33.9079 115.672 34.0835 115.672 34.2575C115.672 34.3444 115.691 34.4297 115.729 34.5067C115.786 34.6221 115.887 34.7107 116.009 34.7676C116.131 34.8244 116.275 34.8512 116.437 34.8512H120.64C120.852 34.8512 121.051 34.8111 121.225 34.7174C121.398 34.6237 121.54 34.4799 121.649 34.2909L126.389 26.5976L131.128 34.2926C131.234 34.4749 131.361 34.6204 131.522 34.7157C131.684 34.8127 131.875 34.8529 132.087 34.8529H136.338C136.546 34.8529 136.73 34.801 136.869 34.6957C137.009 34.5903 137.093 34.4214 137.091 34.2407C137.091 34.0752 137.028 33.9029 136.909 33.7323H136.912Z" fill="#121212"/>
<path d="M136.912 33.7323L129.723 22.5687L136.574 11.9853C136.698 11.8064 136.767 11.6291 136.767 11.4568C136.767 11.3699 136.748 11.2846 136.71 11.2076C136.653 11.0922 136.553 11.0036 136.43 10.9467C136.308 10.8899 136.164 10.8631 136.002 10.8631H131.799C131.587 10.8631 131.388 10.9033 131.214 10.9969C131.041 11.0906 130.899 11.2344 130.79 11.4234L126.387 18.5865L121.936 11.4217C121.831 11.2394 121.704 11.0939 121.543 10.9986C121.381 10.9016 121.19 10.8615 120.978 10.8615H116.726C116.519 10.8615 116.337 10.9133 116.203 11.022C116.067 11.1307 115.994 11.2996 115.995 11.4752C115.995 11.6375 116.05 11.8064 116.153 11.977V11.9803L123.054 22.5653L115.865 33.729C115.741 33.9079 115.672 34.0835 115.672 34.2575C115.672 34.3444 115.691 34.4297 115.729 34.5067C115.786 34.6221 115.887 34.7107 116.009 34.7676C116.131 34.8244 116.275 34.8512 116.437 34.8512H120.64C120.852 34.8512 121.051 34.8111 121.225 34.7174C121.398 34.6237 121.54 34.4799 121.649 34.2909L126.389 26.5976L131.128 34.2926C131.234 34.4749 131.361 34.6204 131.522 34.7157C131.684 34.8127 131.875 34.8529 132.087 34.8529H136.338C136.546 34.8529 136.73 34.801 136.869 34.6957C137.009 34.5903 137.093 34.4214 137.091 34.2407C137.091 34.0752 137.028 33.9029 136.909 33.7323H136.912Z" fill="black" fill-opacity="0.2"/>
<path d="M136.912 33.7323L129.723 22.5687L136.574 11.9853C136.698 11.8064 136.767 11.6291 136.767 11.4568C136.767 11.3699 136.748 11.2846 136.71 11.2076C136.653 11.0922 136.553 11.0036 136.43 10.9467C136.308 10.8899 136.164 10.8631 136.002 10.8631H131.799C131.587 10.8631 131.388 10.9033 131.214 10.9969C131.041 11.0906 130.899 11.2344 130.79 11.4234L126.387 18.5865L121.936 11.4217C121.831 11.2394 121.704 11.0939 121.543 10.9986C121.381 10.9016 121.19 10.8615 120.978 10.8615H116.726C116.519 10.8615 116.337 10.9133 116.203 11.022C116.067 11.1307 115.994 11.2996 115.995 11.4752C115.995 11.6375 116.05 11.8064 116.153 11.977V11.9803L123.054 22.5653L115.865 33.729C115.741 33.9079 115.672 34.0835 115.672 34.2575C115.672 34.3444 115.691 34.4297 115.729 34.5067C115.786 34.6221 115.887 34.7107 116.009 34.7676C116.131 34.8244 116.275 34.8512 116.437 34.8512H120.64C120.852 34.8512 121.051 34.8111 121.225 34.7174C121.398 34.6237 121.54 34.4799 121.649 34.2909L126.389 26.5976L131.128 34.2926C131.234 34.4749 131.361 34.6204 131.522 34.7157C131.684 34.8127 131.875 34.8529 132.087 34.8529H136.338C136.546 34.8529 136.73 34.801 136.869 34.6957C137.009 34.5903 137.093 34.4214 137.091 34.2407C137.091 34.0752 137.028 33.9029 136.909 33.7323H136.912Z" fill="black" fill-opacity="0.2"/>
<path d="M136.912 33.7323L129.723 22.5687L136.574 11.9853C136.698 11.8064 136.767 11.6291 136.767 11.4568C136.767 11.3699 136.748 11.2846 136.71 11.2076C136.653 11.0922 136.553 11.0036 136.43 10.9467C136.308 10.8899 136.164 10.8631 136.002 10.8631H131.799C131.587 10.8631 131.388 10.9033 131.214 10.9969C131.041 11.0906 130.899 11.2344 130.79 11.4234L126.387 18.5865L121.936 11.4217C121.831 11.2394 121.704 11.0939 121.543 10.9986C121.381 10.9016 121.19 10.8615 120.978 10.8615H116.726C116.519 10.8615 116.337 10.9133 116.203 11.022C116.067 11.1307 115.994 11.2996 115.995 11.4752C115.995 11.6375 116.05 11.8064 116.153 11.977V11.9803L123.054 22.5653L115.865 33.729C115.741 33.9079 115.672 34.0835 115.672 34.2575C115.672 34.3444 115.691 34.4297 115.729 34.5067C115.786 34.6221 115.887 34.7107 116.009 34.7676C116.131 34.8244 116.275 34.8512 116.437 34.8512H120.64C120.852 34.8512 121.051 34.8111 121.225 34.7174C121.398 34.6237 121.54 34.4799 121.649 34.2909L126.389 26.5976L131.128 34.2926C131.234 34.4749 131.361 34.6204 131.522 34.7157C131.684 34.8127 131.875 34.8529 132.087 34.8529H136.338C136.546 34.8529 136.73 34.801 136.869 34.6957C137.009 34.5903 137.093 34.4214 137.091 34.2407C137.091 34.0752 137.028 33.9029 136.909 33.7323H136.912Z" fill="black" fill-opacity="0.2"/>
<path d="M136.912 33.7323L129.723 22.5687L136.574 11.9853C136.698 11.8064 136.767 11.6291 136.767 11.4568C136.767 11.3699 136.748 11.2846 136.71 11.2076C136.653 11.0922 136.553 11.0036 136.43 10.9467C136.308 10.8899 136.164 10.8631 136.002 10.8631H131.799C131.587 10.8631 131.388 10.9033 131.214 10.9969C131.041 11.0906 130.899 11.2344 130.79 11.4234L126.387 18.5865L121.936 11.4217C121.831 11.2394 121.704 11.0939 121.543 10.9986C121.381 10.9016 121.19 10.8615 120.978 10.8615H116.726C116.519 10.8615 116.337 10.9133 116.203 11.022C116.067 11.1307 115.994 11.2996 115.995 11.4752C115.995 11.6375 116.05 11.8064 116.153 11.977V11.9803L123.054 22.5653L115.865 33.729C115.741 33.9079 115.672 34.0835 115.672 34.2575C115.672 34.3444 115.691 34.4297 115.729 34.5067C115.786 34.6221 115.887 34.7107 116.009 34.7676C116.131 34.8244 116.275 34.8512 116.437 34.8512H120.64C120.852 34.8512 121.051 34.8111 121.225 34.7174C121.398 34.6237 121.54 34.4799 121.649 34.2909L126.389 26.5976L131.128 34.2926C131.234 34.4749 131.361 34.6204 131.522 34.7157C131.684 34.8127 131.875 34.8529 132.087 34.8529H136.338C136.546 34.8529 136.73 34.801 136.869 34.6957C137.009 34.5903 137.093 34.4214 137.091 34.2407C137.091 34.0752 137.028 33.9029 136.909 33.7323H136.912Z" fill="black" fill-opacity="0.2"/>
</svg>
