<svg width="21" height="28" viewBox="0 0 21 28" fill="none" xmlns="http://www.w3.org/2000/svg">
<path fill-rule="evenodd" clip-rule="evenodd" d="M10.2462 26.3587L11.2186 25.263C12.3219 24.0004 13.3149 22.7989 14.1974 21.6586L14.9263 20.697C17.9703 16.5968 19.4923 13.3437 19.4923 10.9376C19.4923 5.80294 15.3531 1.64062 10.2462 1.64062C5.1392 1.64062 1 5.80294 1 10.9376C1 13.3437 2.52202 16.5973 5.56607 20.6985L6.29497 21.6601C7.55483 23.274 8.87276 24.8402 10.2462 26.3587Z" stroke="#121212" stroke-width="1.5" stroke-linecap="round" stroke-linejoin="round"/>
<path fill-rule="evenodd" clip-rule="evenodd" d="M10.2462 26.3587L11.2186 25.263C12.3219 24.0004 13.3149 22.7989 14.1974 21.6586L14.9263 20.697C17.9703 16.5968 19.4923 13.3437 19.4923 10.9376C19.4923 5.80294 15.3531 1.64062 10.2462 1.64062C5.1392 1.64062 1 5.80294 1 10.9376C1 13.3437 2.52202 16.5973 5.56607 20.6985L6.29497 21.6601C7.55483 23.274 8.87276 24.8402 10.2462 26.3587Z" stroke="black" stroke-opacity="0.2" stroke-width="1.5" stroke-linecap="round" stroke-linejoin="round"/>
<path fill-rule="evenodd" clip-rule="evenodd" d="M10.2462 26.3587L11.2186 25.263C12.3219 24.0004 13.3149 22.7989 14.1974 21.6586L14.9263 20.697C17.9703 16.5968 19.4923 13.3437 19.4923 10.9376C19.4923 5.80294 15.3531 1.64062 10.2462 1.64062C5.1392 1.64062 1 5.80294 1 10.9376C1 13.3437 2.52202 16.5973 5.56607 20.6985L6.29497 21.6601C7.55483 23.274 8.87276 24.8402 10.2462 26.3587Z" stroke="black" stroke-opacity="0.2" stroke-width="1.5" stroke-linecap="round" stroke-linejoin="round"/>
<path fill-rule="evenodd" clip-rule="evenodd" d="M10.2462 26.3587L11.2186 25.263C12.3219 24.0004 13.3149 22.7989 14.1974 21.6586L14.9263 20.697C17.9703 16.5968 19.4923 13.3437 19.4923 10.9376C19.4923 5.80294 15.3531 1.64062 10.2462 1.64062C5.1392 1.64062 1 5.80294 1 10.9376C1 13.3437 2.52202 16.5973 5.56607 20.6985L6.29497 21.6601C7.55483 23.274 8.87276 24.8402 10.2462 26.3587Z" stroke="black" stroke-opacity="0.2" stroke-width="1.5" stroke-linecap="round" stroke-linejoin="round"/>
<path fill-rule="evenodd" clip-rule="evenodd" d="M10.2462 26.3587L11.2186 25.263C12.3219 24.0004 13.3149 22.7989 14.1974 21.6586L14.9263 20.697C17.9703 16.5968 19.4923 13.3437 19.4923 10.9376C19.4923 5.80294 15.3531 1.64062 10.2462 1.64062C5.1392 1.64062 1 5.80294 1 10.9376C1 13.3437 2.52202 16.5973 5.56607 20.6985L6.29497 21.6601C7.55483 23.274 8.87276 24.8402 10.2462 26.3587Z" stroke="black" stroke-opacity="0.2" stroke-width="1.5" stroke-linecap="round" stroke-linejoin="round"/>
<path d="M10.2456 14.7393C12.3734 14.7393 14.0982 13.0145 14.0982 10.8867C14.0982 8.75903 12.3734 7.03418 10.2456 7.03418C8.11792 7.03418 6.39307 8.75903 6.39307 10.8867C6.39307 13.0145 8.11792 14.7393 10.2456 14.7393Z" stroke="#121212" stroke-width="1.5" stroke-linecap="round" stroke-linejoin="round"/>
<path d="M10.2456 14.7393C12.3734 14.7393 14.0982 13.0145 14.0982 10.8867C14.0982 8.75903 12.3734 7.03418 10.2456 7.03418C8.11792 7.03418 6.39307 8.75903 6.39307 10.8867C6.39307 13.0145 8.11792 14.7393 10.2456 14.7393Z" stroke="black" stroke-opacity="0.2" stroke-width="1.5" stroke-linecap="round" stroke-linejoin="round"/>
<path d="M10.2456 14.7393C12.3734 14.7393 14.0982 13.0145 14.0982 10.8867C14.0982 8.75903 12.3734 7.03418 10.2456 7.03418C8.11792 7.03418 6.39307 8.75903 6.39307 10.8867C6.39307 13.0145 8.11792 14.7393 10.2456 14.7393Z" stroke="black" stroke-opacity="0.2" stroke-width="1.5" stroke-linecap="round" stroke-linejoin="round"/>
<path d="M10.2456 14.7393C12.3734 14.7393 14.0982 13.0145 14.0982 10.8867C14.0982 8.75903 12.3734 7.03418 10.2456 7.03418C8.11792 7.03418 6.39307 8.75903 6.39307 10.8867C6.39307 13.0145 8.11792 14.7393 10.2456 14.7393Z" stroke="black" stroke-opacity="0.2" stroke-width="1.5" stroke-linecap="round" stroke-linejoin="round"/>
<path d="M10.2456 14.7393C12.3734 14.7393 14.0982 13.0145 14.0982 10.8867C14.0982 8.75903 12.3734 7.03418 10.2456 7.03418C8.11792 7.03418 6.39307 8.75903 6.39307 10.8867C6.39307 13.0145 8.11792 14.7393 10.2456 14.7393Z" stroke="black" stroke-opacity="0.2" stroke-width="1.5" stroke-linecap="round" stroke-linejoin="round"/>
</svg>
