<svg width="100" height="25" viewBox="0 0 100 25" fill="none" xmlns="http://www.w3.org/2000/svg">
<path d="M99.1967 8.77564C99.1967 8.41337 98.9063 8.28711 98.5014 8.28711H97.8793V10.0241H98.1319V9.29013H98.4908L98.9688 10.0241H99.2557L98.7493 9.26417C99.0184 9.20635 99.1967 9.04704 99.1967 8.77564ZM98.1331 8.46529H98.466C98.7752 8.46529 98.9452 8.54671 98.9452 8.77564C98.9452 9.00456 98.7752 9.11077 98.466 9.11077H98.1331V8.46647V8.46529Z" fill="#FCFCFC"/>
<path d="M98.5007 7.66577C97.672 7.66577 97.0004 8.3372 97.0004 9.16558C97.0004 9.99396 97.672 10.6654 98.5007 10.6654C99.3294 10.6654 100.001 9.99396 100.001 9.16558C100.001 8.3372 99.3294 7.66577 98.5007 7.66577ZM98.5007 10.4577C97.7866 10.4565 97.2081 9.87832 97.2069 9.1644C97.2081 8.45049 97.7866 7.87228 98.5007 7.8711C99.2149 7.87228 99.7934 8.45049 99.7945 9.1644C99.7934 9.87832 99.2149 10.4565 98.5007 10.4577Z" fill="#FCFCFC"/>
<path d="M13.7607 19.7238C13.6203 19.5834 13.4515 19.5149 13.2862 19.5149C13.0831 19.5149 12.8954 19.6117 12.7479 19.7592H12.7467C12.2769 20.2477 11.7681 20.6466 11.1708 20.925C10.5735 21.2035 9.88407 21.3617 9.04594 21.3617C7.47119 21.3617 6.15733 20.7941 5.2342 19.8548C4.31107 18.9143 3.77632 17.5997 3.77632 16.094C3.77632 14.5883 4.31107 13.2903 5.22594 12.3675C6.1408 11.4447 7.43814 10.8948 8.97865 10.8937C9.83331 10.8937 10.531 11.0518 11.1377 11.3303C11.7445 11.6088 12.2615 12.0076 12.7491 12.495C12.8789 12.6436 13.0607 12.7392 13.2567 12.7392C13.4196 12.7392 13.5872 12.6708 13.7277 12.5304L15.2623 11.0648C15.3803 10.9468 15.45 10.804 15.4488 10.6506C15.4488 10.4972 15.3839 10.3473 15.2729 10.1986L15.2717 10.1951C13.8186 8.39674 11.5674 7.25566 8.80866 7.25684C6.2919 7.25684 4.08797 8.20558 2.51558 9.78681C0.940834 11.3657 0 13.577 0 16.0929C0 18.6264 0.949097 20.8542 2.53447 22.4473C4.11984 24.0403 6.3403 24.9985 8.87477 24.9985C11.5993 24.9985 13.8516 23.8586 15.3036 22.0602V22.0579L15.306 22.0567C15.4169 21.908 15.4819 21.757 15.4819 21.6047C15.4819 21.4513 15.4134 21.3086 15.2953 21.1917L13.7596 19.725L13.7607 19.7238Z" fill="#FCFCFC"/>
<path d="M31.9845 7.66524H29.2918C29.1136 7.66524 28.9566 7.72778 28.8527 7.84343C28.7476 7.95907 28.6992 8.11719 28.6992 8.29065V17.3532C28.6992 18.6406 28.2908 19.6378 27.6085 20.3163C26.925 20.9948 25.9606 21.3594 24.8261 21.3606C24.2501 21.3606 23.7436 21.2686 23.3069 21.0939C22.6529 20.8308 22.1547 20.3824 21.8136 19.7558C21.4736 19.1292 21.2942 18.3232 21.2942 17.3532V8.29065C21.2942 8.11719 21.2458 7.95907 21.1407 7.84343C21.0368 7.72778 20.8798 7.66406 20.7016 7.66524H17.9747C17.7964 7.66524 17.6394 7.72778 17.5355 7.84343C17.4305 7.95907 17.3821 8.11719 17.3821 8.29065V18.0353C17.3821 20.2537 18.0113 21.9966 19.0997 23.1849C20.1881 24.3732 21.7321 24.9986 23.53 24.9986C24.8615 24.9986 25.9665 24.6694 26.8577 24.1219C27.6356 23.6439 28.2507 23.0008 28.7169 22.2692L28.8008 23.9366V23.939C28.8102 24.0475 28.8255 24.1407 28.8527 24.2222C28.8917 24.3449 28.9625 24.4464 29.0652 24.5077C29.1679 24.5691 29.2883 24.5891 29.4276 24.5891H31.9845C32.1627 24.5891 32.3233 24.5278 32.4366 24.4145C32.5499 24.3012 32.6113 24.1407 32.6113 23.9626V8.29065C32.6113 8.11247 32.5499 7.95199 32.4366 7.83871C32.3233 7.72542 32.1627 7.66406 31.9845 7.66406V7.66524Z" fill="#FCFCFC"/>
<path d="M44.3917 7.65332C44.3917 7.65332 44.3917 7.65332 44.3905 7.65332C44.0871 7.42794 43.5559 7.25802 42.7898 7.25684C41.7592 7.25684 40.9518 7.59196 40.332 8.14185C39.8315 8.58554 39.4549 9.16493 39.1634 9.81631L39.0878 8.32004C39.0878 8.21265 39.076 8.11825 39.0524 8.03565C39.0158 7.90939 38.9426 7.80791 38.8423 7.74773C38.7419 7.68636 38.6239 7.6663 38.4964 7.6663H35.9064C35.7282 7.6663 35.5712 7.72885 35.4673 7.84449C35.3622 7.96013 35.3138 8.11825 35.3138 8.29172V23.9648C35.3138 24.1383 35.3622 24.2964 35.4673 24.412C35.5712 24.5277 35.7282 24.5914 35.9064 24.5902H38.6333C38.8116 24.5902 38.9686 24.5277 39.0725 24.412C39.1775 24.2964 39.2259 24.1383 39.2259 23.9648V14.9695C39.2259 13.9145 39.4785 12.8903 40.0428 12.1386C40.3249 11.7622 40.6838 11.453 41.1312 11.2359C41.5786 11.0188 42.1169 10.8948 42.7579 10.8948C43.1958 10.8948 43.5547 10.9279 43.949 11.0589H43.9537L43.9584 11.0612C44.0635 11.0872 44.1603 11.1014 44.2512 11.1025C44.322 11.1025 44.3893 11.0931 44.4519 11.0719C44.5451 11.04 44.6266 10.9763 44.6773 10.8889C44.7281 10.8016 44.7493 10.6966 44.7493 10.5762V8.39556C44.7493 8.2339 44.7316 8.09701 44.675 7.97311C44.6183 7.84921 44.525 7.74773 44.3964 7.65686L44.3917 7.65332Z" fill="#FCFCFC"/>
<path d="M55.9446 7.25598C54.6331 7.25598 53.481 7.53211 52.5047 8.03952C51.6371 8.49029 50.9111 9.12396 50.3338 9.90396V0.625429C50.3338 0.451965 50.2854 0.293842 50.1804 0.1782C50.0765 0.0625574 49.9195 -0.00116392 49.7412 1.6101e-05H47.0143C46.8361 1.6101e-05 46.6791 0.0625574 46.5752 0.1782C46.4702 0.293842 46.4218 0.451965 46.4218 0.625429V23.9651C46.4218 24.1386 46.4702 24.2967 46.5752 24.4123C46.6791 24.528 46.8361 24.5917 47.0143 24.5905H49.5028C49.681 24.5905 49.838 24.528 49.9419 24.4123C50.0458 24.2979 50.0942 24.1409 50.0954 23.9687L50.152 22.1184C50.7316 22.9633 51.4706 23.6548 52.3666 24.1468C53.3688 24.6979 54.5658 25 55.9458 25C58.3622 25 60.408 24.0406 61.8422 22.4488C63.2777 20.8581 64.104 18.6409 64.104 16.1286C64.104 13.6328 63.2777 11.4156 61.8422 9.82135C60.4068 8.22596 58.3622 7.25716 55.9446 7.25716V7.25598ZM55.2281 10.8598C56.7001 10.8598 57.9632 11.3931 58.8604 12.3159C59.7575 13.2387 60.2934 14.5533 60.2934 16.1286C60.2934 17.7216 59.7575 19.035 58.8604 19.9542C57.962 20.8723 56.7001 21.3974 55.2269 21.3974C53.7714 21.3974 52.5437 20.8723 51.676 19.9601C50.8084 19.0468 50.2972 17.7405 50.2972 16.164C50.2972 14.5698 50.8084 13.2458 51.676 12.3206C52.5448 11.3955 53.7714 10.8621 55.2269 10.8621L55.2281 10.8598Z" fill="#FCFCFC"/>
<path d="M81.7585 15.3098C81.7585 13.2046 81.0254 11.1915 79.6537 9.70347C78.282 8.21428 76.2705 7.25492 73.736 7.2561C71.1685 7.2561 69.0129 8.21428 67.5043 9.79552C65.9957 11.3767 65.1327 13.5799 65.1339 16.0591C65.1339 18.5737 66.0311 20.811 67.6212 22.4182C69.2113 24.0254 71.4931 25.0001 74.2471 24.9989C76.6199 24.9989 78.799 24.3122 80.2923 22.8537C80.3785 22.7663 80.4493 22.6837 80.5001 22.5964C80.5508 22.5103 80.5815 22.417 80.5815 22.3203C80.5815 22.1928 80.5296 22.0713 80.4399 21.9521L79.4861 20.6576C79.4377 20.5868 79.3798 20.529 79.3137 20.4889C79.2452 20.4476 79.1685 20.4263 79.0894 20.4263C78.9844 20.4263 78.8805 20.4629 78.7849 20.5278C77.471 21.4022 76.1713 21.8023 74.5541 21.8034C72.9215 21.8034 71.6289 21.3668 70.6892 20.6104C69.7826 19.88 69.2018 18.8487 68.9657 17.6037H80.0751C80.4009 17.6037 80.6724 17.5577 80.8979 17.4598C81.0667 17.3866 81.2095 17.2828 81.3229 17.1506C81.494 16.9535 81.6026 16.6975 81.6676 16.3918C81.7325 16.085 81.7573 15.7251 81.7573 15.3086L81.7585 15.3098ZM70.4968 11.7048C71.3349 10.9791 72.4469 10.5873 73.736 10.5873C75.0251 10.5873 76.1017 10.9873 76.8831 11.7154C77.6398 12.4211 78.1238 13.4382 78.2454 14.7186H68.9279C69.131 13.4241 69.6858 12.4069 70.4968 11.7048Z" fill="#FCFCFC"/>
<path d="M96.5998 23.8001L91.5273 15.9235L96.3614 8.45631C96.4487 8.33004 96.4971 8.20496 96.4971 8.08342C96.4971 8.02206 96.4841 7.96188 96.457 7.90759C96.4169 7.82617 96.346 7.76363 96.2599 7.72351C96.1737 7.68339 96.0722 7.66451 95.9577 7.66451H92.9923C92.8424 7.66451 92.7019 7.69283 92.5792 7.75891C92.4576 7.82499 92.3572 7.92648 92.2805 8.05982L89.1735 13.1139L86.0334 8.05864C85.9591 7.93002 85.8694 7.82735 85.756 7.76009C85.6415 7.69165 85.507 7.66333 85.357 7.66333H82.3575C82.2111 7.66333 82.0824 7.69991 81.988 7.77661C81.8924 7.85331 81.8404 7.9725 81.8416 8.0964C81.8416 8.21086 81.8806 8.33004 81.9526 8.45041V8.45277L86.822 15.9211L81.7495 23.7978C81.6622 23.9241 81.6138 24.048 81.6138 24.1707C81.6138 24.232 81.6268 24.2922 81.6539 24.3465C81.694 24.4279 81.7649 24.4905 81.851 24.5306C81.9372 24.5707 82.0387 24.5896 82.1532 24.5896H85.1186C85.2685 24.5896 85.409 24.5613 85.5317 24.4952C85.6533 24.4291 85.7537 24.3276 85.8304 24.1943L89.1747 18.7662L92.5189 24.1955C92.5933 24.3241 92.683 24.4267 92.7964 24.494C92.9109 24.5624 93.0454 24.5908 93.1954 24.5908H96.1949C96.3413 24.5908 96.4712 24.5542 96.5691 24.4798C96.6683 24.4055 96.7273 24.2863 96.7261 24.1589C96.7261 24.0421 96.6813 23.9205 96.5975 23.8001H96.5998Z" fill="#FCFCFC"/>
</svg>
