<svg width="41" height="40" viewBox="0 0 41 40" fill="none" xmlns="http://www.w3.org/2000/svg">
<path d="M17.8887 10.25C16.4053 10.25 14.9553 10.6899 13.7219 11.514C12.4885 12.3381 11.5272 13.5094 10.9596 14.8799C10.3919 16.2503 10.2434 17.7583 10.5328 19.2132C10.8222 20.668 11.5365 22.0044 12.5854 23.0533C13.6343 24.1022 14.9706 24.8165 16.4255 25.1059C17.8804 25.3953 19.3884 25.2467 20.7588 24.6791C22.1292 24.1114 23.3006 23.1501 24.1247 21.9168C24.9488 20.6834 25.3887 19.2334 25.3887 17.75C25.3885 15.7609 24.5983 13.8533 23.1918 12.4468C21.7853 11.0403 19.8778 10.2501 17.8887 10.25Z" stroke="#C3C3C3" stroke-width="1.5" stroke-miterlimit="10"/>
<path d="M23 23.75L28 29.75" stroke="#C3C3C3" stroke-width="1.5" stroke-miterlimit="10" stroke-linecap="round"/>
</svg>
