<svg width="17" height="20" viewBox="0 0 17 20" fill="none" xmlns="http://www.w3.org/2000/svg">
<path d="M8.26361 7C9.92046 7 11.2636 5.65685 11.2636 4C11.2636 2.34315 9.92046 1 8.26361 1C6.60676 1 5.26361 2.34315 5.26361 4C5.26361 5.65685 6.60676 7 8.26361 7Z" stroke="#121212" stroke-width="1.5"/>
<path d="M8.26361 7C9.92046 7 11.2636 5.65685 11.2636 4C11.2636 2.34315 9.92046 1 8.26361 1C6.60676 1 5.26361 2.34315 5.26361 4C5.26361 5.65685 6.60676 7 8.26361 7Z" stroke="black" stroke-opacity="0.2" stroke-width="1.5"/>
<path d="M8.26361 7C9.92046 7 11.2636 5.65685 11.2636 4C11.2636 2.34315 9.92046 1 8.26361 1C6.60676 1 5.26361 2.34315 5.26361 4C5.26361 5.65685 6.60676 7 8.26361 7Z" stroke="black" stroke-opacity="0.2" stroke-width="1.5"/>
<path d="M8.26361 7C9.92046 7 11.2636 5.65685 11.2636 4C11.2636 2.34315 9.92046 1 8.26361 1C6.60676 1 5.26361 2.34315 5.26361 4C5.26361 5.65685 6.60676 7 8.26361 7Z" stroke="black" stroke-opacity="0.2" stroke-width="1.5"/>
<path d="M8.26361 7C9.92046 7 11.2636 5.65685 11.2636 4C11.2636 2.34315 9.92046 1 8.26361 1C6.60676 1 5.26361 2.34315 5.26361 4C5.26361 5.65685 6.60676 7 8.26361 7Z" stroke="black" stroke-opacity="0.2" stroke-width="1.5"/>
<path d="M1.26361 18V15.7C1.26361 14.1883 2.00111 12.7384 3.31386 11.6695C4.62662 10.6005 6.4071 10 8.26361 10C10.1201 10 11.9006 10.6005 13.2134 11.6695C14.5261 12.7384 15.2636 14.1883 15.2636 15.7V18M1.26361 18H15.2636Z" stroke="#121212" stroke-width="1.5" stroke-linecap="round" stroke-linejoin="round"/>
<path d="M1.26361 18V15.7C1.26361 14.1883 2.00111 12.7384 3.31386 11.6695C4.62662 10.6005 6.4071 10 8.26361 10C10.1201 10 11.9006 10.6005 13.2134 11.6695C14.5261 12.7384 15.2636 14.1883 15.2636 15.7V18M1.26361 18H15.2636Z" stroke="black" stroke-opacity="0.2" stroke-width="1.5" stroke-linecap="round" stroke-linejoin="round"/>
<path d="M1.26361 18V15.7C1.26361 14.1883 2.00111 12.7384 3.31386 11.6695C4.62662 10.6005 6.4071 10 8.26361 10C10.1201 10 11.9006 10.6005 13.2134 11.6695C14.5261 12.7384 15.2636 14.1883 15.2636 15.7V18M1.26361 18H15.2636Z" stroke="black" stroke-opacity="0.2" stroke-width="1.5" stroke-linecap="round" stroke-linejoin="round"/>
<path d="M1.26361 18V15.7C1.26361 14.1883 2.00111 12.7384 3.31386 11.6695C4.62662 10.6005 6.4071 10 8.26361 10C10.1201 10 11.9006 10.6005 13.2134 11.6695C14.5261 12.7384 15.2636 14.1883 15.2636 15.7V18M1.26361 18H15.2636Z" stroke="black" stroke-opacity="0.2" stroke-width="1.5" stroke-linecap="round" stroke-linejoin="round"/>
<path d="M1.26361 18V15.7C1.26361 14.1883 2.00111 12.7384 3.31386 11.6695C4.62662 10.6005 6.4071 10 8.26361 10C10.1201 10 11.9006 10.6005 13.2134 11.6695C14.5261 12.7384 15.2636 14.1883 15.2636 15.7V18M1.26361 18H15.2636Z" stroke="black" stroke-opacity="0.2" stroke-width="1.5" stroke-linecap="round" stroke-linejoin="round"/>
</svg>
