<svg width="19" height="17" viewBox="0 0 19 17" fill="none" xmlns="http://www.w3.org/2000/svg">
    <path d="M16.7707 2.425C16.3507 2.00481 15.8521 1.67149 15.3032 1.44407C14.7544 1.21666 14.1661 1.09961 13.572 1.09961C12.9779 1.09961 12.3897 1.21666 11.8408 1.44407C11.292 1.67149 10.7933 2.00481 10.3733 2.425L9.50169 3.29663L8.63006 2.425C7.78171 1.57665 6.6311 1.10005 5.43135 1.10005C4.2316 1.10005 3.08099 1.57665 2.23263 2.425C1.38428 3.27335 0.907684 4.42396 0.907684 5.62371C0.907684 6.82346 1.38428 7.97407 2.23263 8.82242L3.10426 9.69405L9.50169 16.0915L15.8991 9.69405L16.7707 8.82242C17.1909 8.40243 17.5242 7.90377 17.7517 7.35492C17.9791 6.80608 18.0961 6.2178 18.0961 5.62371C18.0961 5.02962 17.9791 4.44134 17.7517 3.8925C17.5242 3.34365 17.1909 2.84499 16.7707 2.425V2.425Z" stroke="#C3C3C3" stroke-width="1.21817" stroke-linecap="round" stroke-linejoin="round"/>
</svg>